<svg version="1.1" xmlns="http://www.w3.org/2000/svg" viewBox="0 0 1832.5579351294864 1875.5551560515362" width="3665.115870258973" height="3751.1103121030724">
  <!-- svg-source:excalidraw -->
  
  <defs>
    <style class="style-fonts">
      @font-face {
        font-family: "Virgil";
        src: url("https://excalidraw.com/Virgil.woff2");
      }
      @font-face {
        font-family: "Cascadia";
        src: url("https://excalidraw.com/Cascadia.woff2");
      }
    </style>
    
  </defs>
  <rect x="0" y="0" width="1832.5579351294864" height="1875.5551560515362" fill="#ffffff"></rect><g stroke-linecap="round" transform="translate(11.378050682557841 10) rotate(0 905.5899422234643 927.7775780257681)"><path d="M32 0 M32 0 C551.35 0.93, 1070.99 1.97, 1779.18 0 M32 0 C624.15 4.75, 1216.18 4.69, 1779.18 0 M1779.18 0 C1801.58 -0.33, 1811.35 10.53, 1811.18 32 M1779.18 0 C1800.11 0.12, 1812.09 11.69, 1811.18 32 M1811.18 32 C1810.82 723.4, 1811.52 1416.98, 1811.18 1823.56 M1811.18 32 C1813.1 613.49, 1812.84 1194.7, 1811.18 1823.56 M1811.18 1823.56 C1812.73 1846.38, 1801.69 1855.27, 1779.18 1855.56 M1811.18 1823.56 C1812.76 1843.22, 1801.33 1856.25, 1779.18 1855.56 M1779.18 1855.56 C1096.17 1859.25, 412.29 1859.77, 32 1855.56 M1779.18 1855.56 C1225.64 1856.69, 672.02 1856.23, 32 1855.56 M32 1855.56 C11.8 1854.98, 1.72 1846.22, 0 1823.56 M32 1855.56 C10.46 1856.46, -1.1 1843.46, 0 1823.56 M0 1823.56 C2.91 1439.32, 3.93 1055.35, 0 32 M0 1823.56 C-1.15 1252.84, -0.51 681.22, 0 32 M0 32 C0.97 11.84, 12.2 -1.79, 32 0 M0 32 C-1.65 11.65, 11.18 0.78, 32 0" stroke="#1e1e1e" stroke-width="1" fill="none"></path></g><g stroke-linecap="round"><g transform="translate(11.190760098425926 128.41229890867953) rotate(0 902.9690110559054 -0.061930912362214485)"><path d="M0.18 -0.98 C301.44 -0.84, 1506.03 0.37, 1807.13 0.58 M-1.19 1.12 C300.02 0.93, 1505.36 -1.34, 1806.6 -1.24" stroke="#1e1e1e" stroke-width="1" fill="none"></path></g></g><mask></mask><g transform="translate(396.5659936206803 63.84087033724711) rotate(0 22.850000381469727 12.5)"><text x="0" y="0" font-family="Virgil, Segoe UI Emoji" font-size="20px" fill="#1e1e1e" text-anchor="start" style="white-space: pre;" direction="ltr" dominant-baseline="text-before-edge">Home</text></g><g transform="translate(505.6275663887309 63.31289532706029) rotate(0 59.34000015258789 12.5)"><text x="0" y="0" font-family="Virgil, Segoe UI Emoji" font-size="20px" fill="#1e1e1e" text-anchor="start" style="white-space: pre;" direction="ltr" dominant-baseline="text-before-edge">Professional</text></g><g transform="translate(693.5191964760224 63.78811402677292) rotate(0 41.320003509521484 12.5)"><text x="0" y="0" font-family="Virgil, Segoe UI Emoji" font-size="20px" fill="#1e1e1e" text-anchor="start" style="white-space: pre;" direction="ltr" dominant-baseline="text-before-edge">Personal</text></g><g transform="translate(1128.1806813078465 64.47664665676734) rotate(0 53.540000915527344 12.5)"><text x="0" y="0" font-family="Virgil, Segoe UI Emoji" font-size="20px" fill="#1e1e1e" text-anchor="start" style="white-space: pre;" direction="ltr" dominant-baseline="text-before-edge">Storyboard</text></g><g transform="translate(843.2160247061556 64.39946931563594) rotate(0 105.510009765625 12.5)"><text x="0" y="0" font-family="Virgil, Segoe UI Emoji" font-size="20px" fill="#1e1e1e" text-anchor="start" style="white-space: pre;" direction="ltr" dominant-baseline="text-before-edge">Personal Development</text></g><g transform="translate(1309.730967088287 64.26527565892394) rotate(0 47.510005950927734 12.5)"><text x="0" y="0" font-family="Virgil, Segoe UI Emoji" font-size="20px" fill="#1e1e1e" text-anchor="start" style="white-space: pre;" direction="ltr" dominant-baseline="text-before-edge">Reference</text></g><g stroke-linecap="round"><g transform="translate(378.93909968584103 86.27196045966394) rotate(0 603.6042094349759 -0.03389956164303953)"><path d="M0.2 -0.97 C201.55 -1.02, 1006.9 -1.3, 1208.35 -1.17 M-1.15 1.13 C200.02 1.26, 1005.83 -0.23, 1207.44 -0.25" stroke="#1e1e1e" stroke-width="1" fill="none"></path></g></g><mask></mask><g transform="translate(395.42492505156224 1126.9929547997763) rotate(0 116.81599426269531 17.5)"><text x="0" y="0" font-family="Virgil, Segoe UI Emoji" font-size="28px" fill="#1e1e1e" text-anchor="start" style="white-space: pre;" direction="ltr" dominant-baseline="text-before-edge">Personality Test</text></g><g transform="translate(397.67078423413295 845.3707844551427) rotate(0 183.66600036621094 17.5)"><text x="0" y="0" font-family="Virgil, Segoe UI Emoji" font-size="28px" fill="#1e1e1e" text-anchor="start" style="white-space: pre;" direction="ltr" dominant-baseline="text-before-edge">My Hero: Cristiano Ronaldo</text></g><g transform="translate(389.3026982282463 251.97538653827633) rotate(0 127.99800109863281 22.5)"><text x="0" y="0" font-family="Virgil, Segoe UI Emoji" font-size="36px" fill="#1e1e1e" text-anchor="start" style="white-space: pre;" direction="ltr" dominant-baseline="text-before-edge">PERSONALITY</text></g><g transform="translate(394.5196481989842 382.8262831848932) rotate(0 584.8622436523438 51.666666666666686)"><text x="0" y="0" font-family="Virgil, Segoe UI Emoji" font-size="11.809523809523814px" fill="#1e1e1e" text-anchor="start" style="white-space: pre;" direction="ltr" dominant-baseline="text-before-edge">My strongest trait is being obsessive to the point of trying to master a new skill. This inherent trait plays a pivotal role in shaping my academic life, turning it into a journey characterized by </text><text x="0" y="14.761904761904766" font-family="Virgil, Segoe UI Emoji" font-size="11.809523809523814px" fill="#1e1e1e" text-anchor="start" style="white-space: pre;" direction="ltr" dominant-baseline="text-before-edge">unyielding dedication. Whenever I embark on a new academic challenge, I do so with an unwavering commitment to achieve mastery. This obsession drives me to delve deep into the subject matter, </text><text x="0" y="29.523809523809533" font-family="Virgil, Segoe UI Emoji" font-size="11.809523809523814px" fill="#1e1e1e" text-anchor="start" style="white-space: pre;" direction="ltr" dominant-baseline="text-before-edge">dissecting every nuance, and seeking a profound understanding. In the classroom, it translates into an insatiable thirst for knowledge. I don't just skim the surface; I aim to explore every facet</text><text x="0" y="44.2857142857143" font-family="Virgil, Segoe UI Emoji" font-size="11.809523809523814px" fill="#1e1e1e" text-anchor="start" style="white-space: pre;" direction="ltr" dominant-baseline="text-before-edge">of a subject, often going above and beyond the required curriculum. This trait pushes me to continuously push my boundaries and explore the outer limits of what I can achieve academically.</text><text x="0" y="59.047619047619065" font-family="Virgil, Segoe UI Emoji" font-size="11.809523809523814px" fill="#1e1e1e" text-anchor="start" style="white-space: pre;" direction="ltr" dominant-baseline="text-before-edge">It's almost as if I view each course as an opportunity to become a true expert in the field. Moreover, my trait for obsession is a double-edged sword. While it fuels my determination, it also </text><text x="0" y="73.80952380952382" font-family="Virgil, Segoe UI Emoji" font-size="11.809523809523814px" fill="#1e1e1e" text-anchor="start" style="white-space: pre;" direction="ltr" dominant-baseline="text-before-edge">demands careful management. There's a fine line between dedication and overexertion, and I'm aware that balance is key. It's crucial to acknowledge when it's time to step back and recharge to </text><text x="0" y="88.5714285714286" font-family="Virgil, Segoe UI Emoji" font-size="11.809523809523814px" fill="#1e1e1e" text-anchor="start" style="white-space: pre;" direction="ltr" dominant-baseline="text-before-edge">prevent burnout.</text></g><g transform="translate(393.61376925704826 524.1695667669827) rotate(0 584.8622436523438 51.666666666666686)"><text x="0" y="0" font-family="Virgil, Segoe UI Emoji" font-size="11.809523809523814px" fill="#1e1e1e" text-anchor="start" style="white-space: pre;" direction="ltr" dominant-baseline="text-before-edge">My strongest trait is being obsessive to the point of trying to master a new skill. This inherent trait plays a pivotal role in shaping my academic life, turning it into a journey characterized by </text><text x="0" y="14.761904761904766" font-family="Virgil, Segoe UI Emoji" font-size="11.809523809523814px" fill="#1e1e1e" text-anchor="start" style="white-space: pre;" direction="ltr" dominant-baseline="text-before-edge">unyielding dedication. Whenever I embark on a new academic challenge, I do so with an unwavering commitment to achieve mastery. This obsession drives me to delve deep into the subject matter, </text><text x="0" y="29.523809523809533" font-family="Virgil, Segoe UI Emoji" font-size="11.809523809523814px" fill="#1e1e1e" text-anchor="start" style="white-space: pre;" direction="ltr" dominant-baseline="text-before-edge">dissecting every nuance, and seeking a profound understanding. In the classroom, it translates into an insatiable thirst for knowledge. I don't just skim the surface; I aim to explore every facet</text><text x="0" y="44.2857142857143" font-family="Virgil, Segoe UI Emoji" font-size="11.809523809523814px" fill="#1e1e1e" text-anchor="start" style="white-space: pre;" direction="ltr" dominant-baseline="text-before-edge">of a subject, often going above and beyond the required curriculum. This trait pushes me to continuously push my boundaries and explore the outer limits of what I can achieve academically.</text><text x="0" y="59.047619047619065" font-family="Virgil, Segoe UI Emoji" font-size="11.809523809523814px" fill="#1e1e1e" text-anchor="start" style="white-space: pre;" direction="ltr" dominant-baseline="text-before-edge">It's almost as if I view each course as an opportunity to become a true expert in the field. Moreover, my trait for obsession is a double-edged sword. While it fuels my determination, it also </text><text x="0" y="73.80952380952382" font-family="Virgil, Segoe UI Emoji" font-size="11.809523809523814px" fill="#1e1e1e" text-anchor="start" style="white-space: pre;" direction="ltr" dominant-baseline="text-before-edge">demands careful management. There's a fine line between dedication and overexertion, and I'm aware that balance is key. It's crucial to acknowledge when it's time to step back and recharge to </text><text x="0" y="88.5714285714286" font-family="Virgil, Segoe UI Emoji" font-size="11.809523809523814px" fill="#1e1e1e" text-anchor="start" style="white-space: pre;" direction="ltr" dominant-baseline="text-before-edge">prevent burnout.</text></g><g transform="translate(393.85144221034443 685.6564586304016) rotate(0 584.8622436523438 51.666666666666686)"><text x="0" y="0" font-family="Virgil, Segoe UI Emoji" font-size="11.809523809523814px" fill="#1e1e1e" text-anchor="start" style="white-space: pre;" direction="ltr" dominant-baseline="text-before-edge">My strongest trait is being obsessive to the point of trying to master a new skill. This inherent trait plays a pivotal role in shaping my academic life, turning it into a journey characterized by </text><text x="0" y="14.761904761904766" font-family="Virgil, Segoe UI Emoji" font-size="11.809523809523814px" fill="#1e1e1e" text-anchor="start" style="white-space: pre;" direction="ltr" dominant-baseline="text-before-edge">unyielding dedication. Whenever I embark on a new academic challenge, I do so with an unwavering commitment to achieve mastery. This obsession drives me to delve deep into the subject matter, </text><text x="0" y="29.523809523809533" font-family="Virgil, Segoe UI Emoji" font-size="11.809523809523814px" fill="#1e1e1e" text-anchor="start" style="white-space: pre;" direction="ltr" dominant-baseline="text-before-edge">dissecting every nuance, and seeking a profound understanding. In the classroom, it translates into an insatiable thirst for knowledge. I don't just skim the surface; I aim to explore every facet</text><text x="0" y="44.2857142857143" font-family="Virgil, Segoe UI Emoji" font-size="11.809523809523814px" fill="#1e1e1e" text-anchor="start" style="white-space: pre;" direction="ltr" dominant-baseline="text-before-edge">of a subject, often going above and beyond the required curriculum. This trait pushes me to continuously push my boundaries and explore the outer limits of what I can achieve academically.</text><text x="0" y="59.047619047619065" font-family="Virgil, Segoe UI Emoji" font-size="11.809523809523814px" fill="#1e1e1e" text-anchor="start" style="white-space: pre;" direction="ltr" dominant-baseline="text-before-edge">It's almost as if I view each course as an opportunity to become a true expert in the field. Moreover, my trait for obsession is a double-edged sword. While it fuels my determination, it also </text><text x="0" y="73.80952380952382" font-family="Virgil, Segoe UI Emoji" font-size="11.809523809523814px" fill="#1e1e1e" text-anchor="start" style="white-space: pre;" direction="ltr" dominant-baseline="text-before-edge">demands careful management. There's a fine line between dedication and overexertion, and I'm aware that balance is key. It's crucial to acknowledge when it's time to step back and recharge to </text><text x="0" y="88.5714285714286" font-family="Virgil, Segoe UI Emoji" font-size="11.809523809523814px" fill="#1e1e1e" text-anchor="start" style="white-space: pre;" direction="ltr" dominant-baseline="text-before-edge">prevent burnout.</text></g><g transform="translate(394.4075911718992 958.8568297592459) rotate(0 567.8800659179688 50)"><text x="0" y="0" font-family="Virgil, Segoe UI Emoji" font-size="16px" fill="#1e1e1e" text-anchor="start" style="white-space: pre;" direction="ltr" dominant-baseline="text-before-edge">The person I look up to the most is Cristiano Ronaldo, one of the world's greatest football (soccer) players. This quote from him resonates </text><text x="0" y="20" font-family="Virgil, Segoe UI Emoji" font-size="16px" fill="#1e1e1e" text-anchor="start" style="white-space: pre;" direction="ltr" dominant-baseline="text-before-edge">deeply with me and encapsulates his philosophy of success. Cristiano Ronaldo is not only a sporting icon but also an embodiment of dedication, </text><text x="0" y="40" font-family="Virgil, Segoe UI Emoji" font-size="16px" fill="#1e1e1e" text-anchor="start" style="white-space: pre;" direction="ltr" dominant-baseline="text-before-edge">discipline, and hard work. What truly sets him apart is his relentless work ethic and his commitment to pushing his limits day in and day out.</text><text x="0" y="60" font-family="Virgil, Segoe UI Emoji" font-size="16px" fill="#1e1e1e" text-anchor="start" style="white-space: pre;" direction="ltr" dominant-baseline="text-before-edge"></text><text x="0" y="80" font-family="Virgil, Segoe UI Emoji" font-size="16px" fill="#1e1e1e" text-anchor="start" style="white-space: pre;" direction="ltr" dominant-baseline="text-before-edge"></text></g><g transform="translate(395.53675964409285 1025.0387627686887) rotate(0 567.8800659179688 30)"><text x="0" y="0" font-family="Virgil, Segoe UI Emoji" font-size="16px" fill="#1e1e1e" text-anchor="start" style="white-space: pre;" direction="ltr" dominant-baseline="text-before-edge">The person I look up to the most is Cristiano Ronaldo, one of the world's greatest football (soccer) players. This quote from him resonates </text><text x="0" y="20" font-family="Virgil, Segoe UI Emoji" font-size="16px" fill="#1e1e1e" text-anchor="start" style="white-space: pre;" direction="ltr" dominant-baseline="text-before-edge">deeply with me and encapsulates his philosophy of success. Cristiano Ronaldo is not only a sporting icon but also an embodiment of dedication, </text><text x="0" y="40" font-family="Virgil, Segoe UI Emoji" font-size="16px" fill="#1e1e1e" text-anchor="start" style="white-space: pre;" direction="ltr" dominant-baseline="text-before-edge">discipline, and hard work. What truly sets him apart is his relentless work ethic and his commitment to pushing his limits day in and day out.</text></g><g stroke-linecap="round" transform="translate(397.7730659450408 1207.5401776360932) rotate(0 397.7885091180656 256.18191340668335)"><path d="M-0.08 0.39 C309.7 -2.97, 618.46 -2.48, 794.89 0.77 M-0.15 0.29 C215.57 1.35, 431.58 1.62, 795.46 0.28 M795.39 -0.61 C793.89 125.58, 795.37 250.38, 794.91 511.95 M795.35 0.3 C796.26 201.93, 796.44 403.7, 795.94 512.25 M795.83 511.91 C540.96 510.52, 288.45 510.32, 0.64 511.77 M795.77 512.3 C562.4 514.34, 328.67 514.31, -0.03 512.54 M-0.55 512.51 C0.78 317.19, 1.21 122.03, -0.05 -0.11 M-0.21 512.22 C1.46 364.92, 1.33 217.77, 0.21 -0.04" stroke="#000000" stroke-width="1" fill="none"></path></g><g stroke-linecap="round"><g transform="translate(421.51246491778875 1682.6008416872185) rotate(0 363.93384567089925 -154.67273556656716)" fill-rule="evenodd"><path d="M1.35 -0.59 L252.23 -222.85 L371.14 -143.58 L570.19 -323.38 L727.32 14.68 L-1.86 -0.23" stroke="none" stroke-width="0" fill="black" fill-rule="evenodd"></path><path d="M0.66 0.32 C50.41 -47.19, 103.61 -93.78, 253.74 -224.06 M0.49 -0.35 C77.83 -67.8, 155.58 -136.56, 252.92 -224.04 M250.93 -225.37 C283.1 -200.93, 311.36 -184.11, 370.14 -140.16 M253.19 -224.47 C294 -194.87, 335.24 -165.2, 370.9 -141.85 M370.3 -143.58 C418.01 -182.01, 462.59 -222.32, 570.88 -323.09 M371.05 -141.61 C432.73 -198.65, 494.39 -254.1, 572.38 -322.35 M572.25 -324.21 C608.69 -247.62, 643.72 -171.85, 727.15 14.19 M571.82 -323.07 C608.32 -246.54, 643.86 -169.7, 727.27 14.87 M727.87 13.66 C542.14 12.52, 356.67 7.68, 0.22 -0.46 M726.95 14.49 C576.16 14.04, 425.72 10.68, 0.39 0.02 M0 0 C0 0, 0 0, 0 0 M0 0 C0 0, 0 0, 0 0" stroke="#000000" stroke-width="1" fill="none"></path></g></g><mask></mask><g stroke-linecap="round" transform="translate(490.09669062780176 1280.8408569159062) rotate(0 59.729715897020014 59.729715897020185)"><path d="M37.77 3.91 C45.56 -0.08, 57.12 -1.23, 66.49 -0.08 C75.86 1.08, 86.37 5.42, 94.01 10.84 C101.65 16.26, 108.14 24.4, 112.31 32.43 C116.47 40.46, 118.84 49.8, 119.01 59.03 C119.18 68.25, 117.61 79.41, 113.31 87.76 C109 96.12, 100.74 103.84, 93.17 109.15 C85.61 114.47, 77.1 118.53, 67.91 119.67 C58.72 120.81, 46.9 119.5, 38.04 116.01 C29.18 112.52, 20.87 105.53, 14.75 98.75 C8.62 91.96, 3.65 84.06, 1.3 75.3 C-1.04 66.55, -1.39 55.28, 0.68 46.23 C2.75 37.17, 6.72 28.36, 13.73 20.99 C20.74 13.62, 36.87 5.09, 42.73 2 C48.59 -1.09, 48.4 1.41, 48.86 2.46 M35.19 5.19 C42.63 1.03, 53.87 0.81, 62.96 1.47 C72.04 2.12, 81.84 4.41, 89.7 9.13 C97.56 13.85, 105.41 22, 110.12 29.78 C114.84 37.56, 117.2 46.64, 117.98 55.81 C118.76 64.98, 118.29 76.23, 114.8 84.81 C111.31 93.39, 104.6 101.67, 97.05 107.28 C89.5 112.88, 78.5 116.7, 69.5 118.45 C60.51 120.19, 51.81 120.53, 43.06 117.76 C34.31 114.98, 23.65 108.49, 17.03 101.77 C10.4 95.05, 6.17 86.46, 3.31 77.42 C0.44 68.38, -1.69 56.63, -0.17 47.54 C1.36 38.44, 6.5 30.13, 12.44 22.85 C18.39 15.57, 31.65 6.84, 35.5 3.85 C39.36 0.86, 35.41 3.78, 35.57 4.91" stroke="none" stroke-width="0" fill="black"></path><path d="M41.98 3.4 C50.23 0.07, 61.96 -0.37, 71.11 1.21 C80.25 2.8, 89.46 7.19, 96.83 12.91 C104.19 18.63, 111.59 26.97, 115.3 35.54 C119 44.11, 119.81 55.08, 119.06 64.34 C118.31 73.6, 115.56 83.37, 110.81 91.11 C106.06 98.84, 98.69 105.96, 90.54 110.76 C82.39 115.56, 71.33 119.54, 61.93 119.92 C52.53 120.3, 42.59 117.03, 34.15 113.06 C25.72 109.08, 16.7 103.39, 11.31 96.06 C5.92 88.72, 3.34 78.29, 1.81 69.04 C0.29 59.8, -0.73 49.18, 2.15 40.57 C5.02 31.95, 11 24.08, 19.09 17.34 C27.17 10.6, 43.89 2.94, 50.64 0.12 C57.39 -2.7, 59.38 -0.62, 59.59 0.41 M62.6 -1.09 C71.02 -1.43, 80.87 3.98, 88.68 8.57 C96.49 13.17, 104.22 18.56, 109.46 26.48 C114.69 34.4, 119.16 46.44, 120.09 56.11 C121.02 65.78, 119.01 76.19, 115.04 84.5 C111.07 92.82, 103.5 100.25, 96.26 106.01 C89.02 111.77, 80.38 117.29, 71.61 119.08 C62.85 120.88, 52.43 119.35, 43.67 116.79 C34.91 114.24, 25.9 109.99, 19.05 103.77 C12.2 97.54, 5.63 88.3, 2.57 79.44 C-0.49 70.58, -1.12 60.11, 0.67 50.63 C2.46 41.15, 7.51 30.21, 13.31 22.55 C19.11 14.89, 27.27 8.66, 35.49 4.66 C43.7 0.66, 58.05 -0.75, 62.58 -1.44 C67.11 -2.12, 62.62 -0.67, 62.68 0.56" stroke="#000000" stroke-width="1" fill="none"></path></g><g transform="translate(390.87486964390246 322.21910546421384) rotate(0 363.8720703125 11.5)"><text x="0" y="0" font-family="Helvetica, Segoe UI Emoji" font-size="20px" fill="#1e1e1e" text-anchor="start" style="white-space: pre;" direction="ltr" dominant-baseline="text-before-edge">How my strongest trait, emotion, and hobby, etc. impact your school/academic life.</text></g><g transform="translate(393.8536549833343 907.9750800891184) rotate(0 176.640625 11.5)"><text x="0" y="0" font-family="Helvetica, Segoe UI Emoji" font-size="20px" fill="#1e1e1e" text-anchor="start" style="white-space: pre;" direction="ltr" dominant-baseline="text-before-edge">"Talent without working hard is nothing."</text></g></svg>