<svg version="1.1" xmlns="http://www.w3.org/2000/svg" viewBox="0 0 1831.9243047101872 1875.5551560515362" width="3663.8486094203745" height="3751.1103121030724">
  <!-- svg-source:excalidraw -->
  
  <defs>
    <style class="style-fonts">
      @font-face {
        font-family: "Virgil";
        src: url("https://excalidraw.com/Virgil.woff2");
      }
      @font-face {
        font-family: "Cascadia";
        src: url("https://excalidraw.com/Cascadia.woff2");
      }
    </style>
    
  </defs>
  <rect x="0" y="0" width="1831.9243047101872" height="1875.5551560515362" fill="#ffffff"></rect><g stroke-linecap="round" transform="translate(10.74442026325869 10) rotate(0 905.5899422234643 927.7775780257681)"><path d="M32 0 M32 0 C508.87 -4.37, 984.92 -4.71, 1779.18 0 M32 0 C465.14 -3.7, 897.83 -3.55, 1779.18 0 M1779.18 0 C1799.5 -0.84, 1812.19 10.37, 1811.18 32 M1779.18 0 C1801.75 -0.95, 1811.77 8.52, 1811.18 32 M1811.18 32 C1804.6 522.03, 1804.65 1012.1, 1811.18 1823.56 M1811.18 32 C1816.12 738.65, 1816.03 1445.72, 1811.18 1823.56 M1811.18 1823.56 C1809.94 1843.11, 1802.42 1854.68, 1779.18 1855.56 M1811.18 1823.56 C1810.36 1845.56, 1799.16 1854.58, 1779.18 1855.56 M1779.18 1855.56 C1254.57 1856.31, 728.36 1856.47, 32 1855.56 M1779.18 1855.56 C1263.85 1858.87, 748.05 1859.21, 32 1855.56 M32 1855.56 C12.49 1853.76, -1.04 1843.61, 0 1823.56 M32 1855.56 C11.1 1856.02, 0.99 1844.41, 0 1823.56 M0 1823.56 C-0.89 1330.62, -0.01 838.41, 0 32 M0 1823.56 C6.29 1294.89, 6.5 766.21, 0 32 M0 32 C1.61 9.56, 10.56 1.58, 32 0 M0 32 C1.29 8.72, 9.73 1.08, 32 0" stroke="#1e1e1e" stroke-width="1" fill="none"></path></g><g stroke-linecap="round"><g transform="translate(10.557129679126774 128.41229890867953) rotate(0 902.854684488218 -0.1900381210679143)"><path d="M0.59 1 C301.62 0.93, 1505.41 0.79, 1806.27 0.49 M-0.56 0.47 C300.3 -0.03, 1504.43 -1.31, 1805.29 -1.38" stroke="#1e1e1e" stroke-width="1" fill="none"></path></g></g><mask></mask><g transform="translate(383.6633638404737 63.84087033724711) rotate(0 22.850000381469727 12.5)"><text x="0" y="0" font-family="Virgil, Segoe UI Emoji" font-size="20px" fill="#1e1e1e" text-anchor="start" style="white-space: pre;" direction="ltr" dominant-baseline="text-before-edge">Home</text></g><g transform="translate(492.7249366085234 63.31289532706029) rotate(0 59.34000015258789 12.5)"><text x="0" y="0" font-family="Virgil, Segoe UI Emoji" font-size="20px" fill="#1e1e1e" text-anchor="start" style="white-space: pre;" direction="ltr" dominant-baseline="text-before-edge">Professional</text></g><g transform="translate(680.616566695815 63.78811402677292) rotate(0 41.320003509521484 12.5)"><text x="0" y="0" font-family="Virgil, Segoe UI Emoji" font-size="20px" fill="#1e1e1e" text-anchor="start" style="white-space: pre;" direction="ltr" dominant-baseline="text-before-edge">Personal</text></g><g transform="translate(1115.27805152764 64.47664665676734) rotate(0 53.540000915527344 12.5)"><text x="0" y="0" font-family="Virgil, Segoe UI Emoji" font-size="20px" fill="#1e1e1e" text-anchor="start" style="white-space: pre;" direction="ltr" dominant-baseline="text-before-edge">Storyboard</text></g><g transform="translate(830.3133949259491 64.39946931563594) rotate(0 105.510009765625 12.5)"><text x="0" y="0" font-family="Virgil, Segoe UI Emoji" font-size="20px" fill="#1e1e1e" text-anchor="start" style="white-space: pre;" direction="ltr" dominant-baseline="text-before-edge">Personal Development</text></g><g transform="translate(1296.8283373080803 64.26527565892394) rotate(0 47.510005950927734 12.5)"><text x="0" y="0" font-family="Virgil, Segoe UI Emoji" font-size="20px" fill="#1e1e1e" text-anchor="start" style="white-space: pre;" direction="ltr" dominant-baseline="text-before-edge">Reference</text></g><g stroke-linecap="round"><g transform="translate(366.03646990563493 86.27196045966394) rotate(0 604.1247299915965 -0.04462068923041329)"><path d="M-0.25 -1.06 C201.06 -1.19, 1007.16 -0.88, 1208.5 -0.61 M1.81 1 C202.93 1.01, 1006.84 1.02, 1207.66 0.61" stroke="#1e1e1e" stroke-width="1" fill="none"></path></g></g><mask></mask><g transform="translate(390.7859915449849 326.75962436157005) rotate(0 49.2239990234375 17.5)"><text x="0" y="0" font-family="Virgil, Segoe UI Emoji" font-size="28px" fill="#1e1e1e" text-anchor="start" style="white-space: pre;" direction="ltr" dominant-baseline="text-before-edge">Resume</text></g><g transform="translate(398.7413245601597 1095.6897844887108) rotate(0 204.63800048828125 17.5)"><text x="0" y="0" font-family="Virgil, Segoe UI Emoji" font-size="28px" fill="#1e1e1e" text-anchor="start" style="white-space: pre;" direction="ltr" dominant-baseline="text-before-edge">Professional Vision Statement</text></g><g transform="translate(400.93854406327546 1275.4002602959404) rotate(0 125.64999389648438 17.5)"><text x="0" y="0" font-family="Virgil, Segoe UI Emoji" font-size="28px" fill="#1e1e1e" text-anchor="start" style="white-space: pre;" direction="ltr" dominant-baseline="text-before-edge">Mission Statement</text></g><g transform="translate(405.03715381483335 1455.55450132307) rotate(0 242.88597106933594 17.5)"><text x="0" y="0" font-family="Virgil, Segoe UI Emoji" font-size="28px" fill="#1e1e1e" text-anchor="start" style="white-space: pre;" direction="ltr" dominant-baseline="text-before-edge">Job Requirements &amp; Qualifications </text></g><g transform="translate(388.66906780894624 251.97538653827633) rotate(0 197.6219940185547 22.5)"><text x="0" y="0" font-family="Virgil, Segoe UI Emoji" font-size="36px" fill="#1e1e1e" text-anchor="start" style="white-space: pre;" direction="ltr" dominant-baseline="text-before-edge">PROFESSIONAL PAGE</text></g><g transform="translate(395.4781314979259 1152.8121934291778) rotate(0 551.776123046875 30)"><text x="0" y="0" font-family="Virgil, Segoe UI Emoji" font-size="16px" fill="#1e1e1e" text-anchor="start" style="white-space: pre;" direction="ltr" dominant-baseline="text-before-edge">I'm, a dedicated Computer Science student at the University of Technology - Jamaica, on a mission to bridge creativity with cutting-edge </text><text x="0" y="20" font-family="Virgil, Segoe UI Emoji" font-size="16px" fill="#1e1e1e" text-anchor="start" style="white-space: pre;" direction="ltr" dominant-baseline="text-before-edge">technology. With a strong foundation in Java, JavaScript, Python, and C, I bring a GPA of 3.85 and a passion for innovative programming</text><text x="0" y="40" font-family="Virgil, Segoe UI Emoji" font-size="16px" fill="#1e1e1e" text-anchor="start" style="white-space: pre;" direction="ltr" dominant-baseline="text-before-edge"> to the table. Also I'm dedicated to making some money...</text></g><g transform="translate(397.6753510010417 1332.5226692364072) rotate(0 551.776123046875 30)"><text x="0" y="0" font-family="Virgil, Segoe UI Emoji" font-size="16px" fill="#1e1e1e" text-anchor="start" style="white-space: pre;" direction="ltr" dominant-baseline="text-before-edge">I'm, a dedicated Computer Science student at the University of Technology - Jamaica, on a mission to bridge creativity with cutting-edge </text><text x="0" y="20" font-family="Virgil, Segoe UI Emoji" font-size="16px" fill="#1e1e1e" text-anchor="start" style="white-space: pre;" direction="ltr" dominant-baseline="text-before-edge">technology. With a strong foundation in Java, JavaScript, Python, and C, I bring a GPA of 3.85 and a passion for innovative programming</text><text x="0" y="40" font-family="Virgil, Segoe UI Emoji" font-size="16px" fill="#1e1e1e" text-anchor="start" style="white-space: pre;" direction="ltr" dominant-baseline="text-before-edge"> to the table. Also I'm dedicated to making some money...</text></g><g transform="translate(401.7739607525996 1512.676910263537) rotate(0 551.776123046875 30)"><text x="0" y="0" font-family="Virgil, Segoe UI Emoji" font-size="16px" fill="#1e1e1e" text-anchor="start" style="white-space: pre;" direction="ltr" dominant-baseline="text-before-edge">I'm, a dedicated Computer Science student at the University of Technology - Jamaica, on a mission to bridge creativity with cutting-edge </text><text x="0" y="20" font-family="Virgil, Segoe UI Emoji" font-size="16px" fill="#1e1e1e" text-anchor="start" style="white-space: pre;" direction="ltr" dominant-baseline="text-before-edge">technology. With a strong foundation in Java, JavaScript, Python, and C, I bring a GPA of 3.85 and a passion for innovative programming</text><text x="0" y="40" font-family="Virgil, Segoe UI Emoji" font-size="16px" fill="#1e1e1e" text-anchor="start" style="white-space: pre;" direction="ltr" dominant-baseline="text-before-edge"> to the table. Also I'm dedicated to making some money...</text></g><g stroke-linecap="round" transform="translate(393.13413243846344 408.8941487851886) rotate(0 458.89962022917643 295.5384081670842)"><path d="M-0.74 -0.79 C211.72 2.74, 424.66 3.71, 917.22 -0.24 M0.35 -0.35 C190.91 -1.37, 380.81 -1.17, 917.89 -0.3 M918.47 0.03 C920.2 158.23, 919.44 315.94, 918.36 591.88 M917.86 -0.01 C917.17 118.77, 917.49 237.44, 917.45 590.86 M917.7 591.23 C662.43 588.73, 407.65 588.55, 0.11 591.67 M917.57 591.02 C645.2 594.83, 373.2 594.28, 0.35 590.81 M0.2 591.15 C1.55 381.55, 2.65 172.83, -0.15 -0.19 M-0.2 590.89 C1.45 393.2, 1.94 195.45, -0.04 0.24" stroke="#000000" stroke-width="1" fill="none"></path></g><g stroke-linecap="round"><g transform="translate(420.52054738849756 956.9370241367657) rotate(0 419.54382133180957 -178.4836987945524)" fill-rule="evenodd"><path d="M1.04 0.01 L291.91 -256.39 L428.56 -162.97 L660.43 -373.86 L840.29 15.28 L-0.17 1.15" stroke="none" stroke-width="0" fill="black" fill-rule="evenodd"></path><path d="M-0.76 -1.08 C61.43 -50.94, 120.08 -104.57, 290.15 -258.84 M0.5 -0.13 C95.76 -84.77, 193.95 -171.84, 291.04 -257.45 M291.33 -256.88 C322 -235.24, 357 -212.38, 426.23 -164.19 M290.64 -257.98 C341.76 -223.63, 390.89 -189.55, 428 -162.89 M428.22 -164.61 C486.79 -216.9, 543.23 -266.42, 659.87 -373.57 M427.76 -163.48 C521.07 -246.94, 613.33 -329.55, 660.3 -373.25 M659.18 -373.48 C713.73 -259.07, 765.46 -144.34, 839.43 15.81 M659.63 -372.46 C697.99 -287.51, 736.37 -203.46, 839.15 16.31 M839.85 15.75 C641.63 11.06, 442.89 7.31, 0.71 -0.12 M839.35 16.61 C532.76 12.26, 226.91 6.35, -0.06 -0.2 M0 0 C0 0, 0 0, 0 0 M0 0 C0 0, 0 0, 0 0" stroke="#000000" stroke-width="1" fill="none"></path></g></g><mask></mask><g stroke-linecap="round" transform="translate(499.6411715659433 493.45580180685243) rotate(0 68.90582134287797 68.90582134287786)"><path d="M91.75 3.84 C100.82 5.83, 109.8 12.29, 116.78 19.16 C123.76 26.03, 130.04 35.73, 133.65 45.05 C137.26 54.38, 139.36 65, 138.42 75.09 C137.47 85.17, 133.49 96.81, 127.96 105.57 C122.42 114.32, 113.55 122.34, 105.24 127.61 C96.92 132.87, 87.71 135.97, 78.05 137.16 C68.4 138.36, 56.82 137.82, 47.31 134.75 C37.8 131.68, 28.2 125.85, 21.01 118.73 C13.82 111.61, 7.52 101.42, 4.19 92.04 C0.86 82.67, -0.16 72.4, 1.02 62.49 C2.19 52.57, 6.22 41.11, 11.26 32.54 C16.3 23.98, 22.9 16.33, 31.28 11.08 C39.67 5.84, 50.75 1.96, 61.55 1.07 C72.35 0.19, 89.47 4.24, 96.1 5.78 C102.72 7.32, 101.8 9.38, 101.33 10.33 M37.76 9.01 C45.94 3.84, 57.76 2.15, 67.48 1.46 C77.19 0.76, 87.1 0.84, 96.05 4.83 C105 8.81, 114.72 17.62, 121.17 25.37 C127.62 33.13, 132.08 41.85, 134.76 51.37 C137.44 60.9, 138.97 72.46, 137.23 82.52 C135.5 92.57, 130.47 103.64, 124.37 111.7 C118.27 119.76, 109.53 126.68, 100.65 130.87 C91.76 135.06, 80.92 136.87, 71.06 136.85 C61.21 136.84, 50.71 134.57, 41.53 130.78 C32.36 126.99, 22.5 121.4, 16.03 114.1 C9.56 106.81, 5 96.79, 2.71 87.02 C0.42 77.24, 0.28 65.17, 2.29 55.44 C4.31 45.7, 8.87 36.58, 14.79 28.62 C20.72 20.65, 33.74 10.77, 37.83 7.63 C41.91 4.49, 39.03 8.53, 39.31 9.77" stroke="none" stroke-width="0" fill="black"></path><path d="M77.66 -0.01 C87.36 0.5, 99.29 6.72, 107.58 12.52 C115.87 18.32, 122.43 26.49, 127.4 34.79 C132.36 43.09, 136.33 52.51, 137.35 62.34 C138.38 72.17, 137.21 84.36, 133.56 93.75 C129.91 103.14, 122.58 111.99, 115.45 118.68 C108.32 125.37, 100.01 130.81, 90.78 133.89 C81.55 136.97, 70.08 138.35, 60.06 137.16 C50.03 135.97, 39.2 132.21, 30.63 126.75 C22.06 121.28, 13.58 112.88, 8.63 104.36 C3.68 95.85, 1.79 85.69, 0.95 75.65 C0.1 65.6, 0 53.57, 3.56 44.12 C7.11 34.67, 14.86 25.87, 22.27 18.96 C29.68 12.05, 37.86 5.53, 48.01 2.65 C58.17 -0.23, 76.68 1.61, 83.21 1.68 C89.73 1.74, 87.48 2, 87.14 3.05 M101.38 7.98 C110.23 11.7, 117.86 21.04, 123.55 29.09 C129.23 37.14, 133.31 46.67, 135.48 56.27 C137.65 65.87, 139.14 76.83, 136.58 86.67 C134.02 96.5, 126.97 107.75, 120.14 115.28 C113.31 122.81, 104.74 127.95, 95.62 131.84 C86.5 135.72, 75.15 139.11, 65.4 138.57 C55.65 138.03, 45.56 133.55, 37.12 128.59 C28.69 123.64, 20.65 116.86, 14.8 108.83 C8.95 100.8, 4.1 89.96, 2.01 80.4 C-0.09 70.84, -0.22 61.05, 2.25 51.47 C4.71 41.89, 10.5 30.37, 16.8 22.92 C23.11 15.47, 31.13 10.61, 40.08 6.75 C49.03 2.89, 60.38 -0.53, 70.49 -0.24 C80.6 0.05, 95.92 7.14, 100.73 8.5 C105.54 9.86, 99.98 7.12, 99.38 7.94" stroke="#000000" stroke-width="1" fill="none"></path></g></svg>