<svg version="1.1" xmlns="http://www.w3.org/2000/svg" viewBox="0 0 2536.804676710897 888.9246709980166" width="5073.609353421794" height="1777.8493419960332">
  <!-- svg-source:excalidraw -->
  
  <defs>
    <style class="style-fonts">
      @font-face {
        font-family: "Virgil";
        src: url("https://excalidraw.com/Virgil.woff2");
      }
      @font-face {
        font-family: "Cascadia";
        src: url("https://excalidraw.com/Cascadia.woff2");
      }
    </style>
    
  </defs>
  <rect x="0" y="0" width="2536.804676710897" height="888.9246709980166" fill="#ffffff"></rect><g stroke-linecap="round" transform="translate(10 527.7792282689534) rotate(0 183.50688086310402 140.68860866171315)"><path d="M32 0 M32 0 C128.74 1.51, 228.83 0.41, 335.01 0 M32 0 C120.5 1.15, 209.85 1.56, 335.01 0 M335.01 0 C356.96 -1.82, 369 8.77, 367.01 32 M335.01 0 C355.89 -0.08, 366.83 9.51, 367.01 32 M367.01 32 C368.25 98.83, 368.69 163.53, 367.01 249.38 M367.01 32 C366.46 100.17, 366 166.2, 367.01 249.38 M367.01 249.38 C367.38 269.11, 354.65 282.11, 335.01 281.38 M367.01 249.38 C367.05 271.64, 358.58 280.59, 335.01 281.38 M335.01 281.38 C262.88 284.07, 190.42 283.42, 32 281.38 M335.01 281.38 C249.82 281.11, 165.29 281.69, 32 281.38 M32 281.38 C10.37 280.6, 0.75 271.08, 0 249.38 M32 281.38 C8.53 280.5, -2.25 268.52, 0 249.38 M0 249.38 C1.9 182.57, -0.43 116.39, 0 32 M0 249.38 C1.9 165.17, 1.12 81.19, 0 32 M0 32 C0.82 11.6, 11.51 0.36, 32 0 M0 32 C0.05 11.05, 8.46 1.14, 32 0" stroke="#1e1e1e" stroke-width="1" fill="none"></path></g><g transform="translate(54.376543360371215 649.0730102160496) rotate(0 140.0361328125 20.700000000000045)"><text x="0" y="0" font-family="Helvetica, Segoe UI Emoji" font-size="36px" fill="#1e1e1e" text-anchor="start" style="white-space: pre;" direction="ltr" dominant-baseline="text-before-edge">PROFESSIONAL</text></g><g stroke-linecap="round" transform="translate(1103.8678057395155 597.5474536745903) rotate(0 183.50688086310402 140.68860866171315)"><path d="M32 0 M32 0 C143.87 -1.87, 256.97 -3.29, 335.01 0 M32 0 C96.04 -1.73, 159.33 -1.92, 335.01 0 M335.01 0 C354.77 0.72, 368.12 8.76, 367.01 32 M335.01 0 C355.55 2.03, 368.87 8.54, 367.01 32 M367.01 32 C365.24 87.48, 364.32 145.19, 367.01 249.38 M367.01 32 C367.55 76.35, 366.58 120.24, 367.01 249.38 M367.01 249.38 C368.73 271.25, 356.04 280.6, 335.01 281.38 M367.01 249.38 C366.39 270.84, 358.03 281.82, 335.01 281.38 M335.01 281.38 C222.55 282.43, 109.77 281.85, 32 281.38 M335.01 281.38 C248.63 281.21, 161.53 281.78, 32 281.38 M32 281.38 C11.8 280.7, -1.03 269.7, 0 249.38 M32 281.38 C11.22 279.09, -2.06 270.83, 0 249.38 M0 249.38 C0.26 176.31, 0.68 101.86, 0 32 M0 249.38 C0.05 186.65, 1.2 124.92, 0 32 M0 32 C-0.98 11.98, 9.48 1.71, 32 0 M0 32 C-1.7 11.96, 9.6 1.77, 32 0" stroke="#1e1e1e" stroke-width="1" fill="none"></path></g><g transform="translate(1155.2443490998867 693.8412356216866) rotate(0 136.0283203125 41.39999999999998)"><text x="136.0283203125" y="0" font-family="Helvetica, Segoe UI Emoji" font-size="36px" fill="#1e1e1e" text-anchor="middle" style="white-space: pre;" direction="ltr" dominant-baseline="text-before-edge">PERSONAL</text><text x="136.0283203125" y="41.4" font-family="Helvetica, Segoe UI Emoji" font-size="36px" fill="#1e1e1e" text-anchor="middle" style="white-space: pre;" direction="ltr" dominant-baseline="text-before-edge">DEVELOPMENT</text></g><g stroke-linecap="round" transform="translate(1656.9119617873193 594.878953197371) rotate(0 183.50688086310402 140.68860866171315)"><path d="M32 0 M32 0 C106.68 0.52, 184.07 -0.56, 335.01 0 M32 0 C113.74 -0.61, 196.27 0.79, 335.01 0 M335.01 0 C355.63 -1.71, 367.35 9.1, 367.01 32 M335.01 0 C354.8 0.13, 366.71 11.94, 367.01 32 M367.01 32 C367.06 86.38, 367.51 143.47, 367.01 249.38 M367.01 32 C367.85 77.08, 366.96 121.09, 367.01 249.38 M367.01 249.38 C366.05 268.72, 357.5 279.74, 335.01 281.38 M367.01 249.38 C368.3 271.41, 354.91 279.98, 335.01 281.38 M335.01 281.38 C232.26 279.6, 132.04 279.98, 32 281.38 M335.01 281.38 C214.27 282.82, 93.7 283.32, 32 281.38 M32 281.38 C11.9 282.32, -0.25 271.36, 0 249.38 M32 281.38 C10.42 281.79, -0.25 268.56, 0 249.38 M0 249.38 C-0.77 164.25, -0.48 81.14, 0 32 M0 249.38 C0.16 192.91, 1.03 135.01, 0 32 M0 32 C-0.85 11.8, 12.08 0.94, 32 0 M0 32 C-1.43 12.79, 11.2 1.98, 32 0" stroke="#1e1e1e" stroke-width="1" fill="none"></path></g><g transform="translate(1718.2885051476906 716.1727351444672) rotate(0 125.384765625 20.700000000000045)"><text x="0" y="0" font-family="Helvetica, Segoe UI Emoji" font-size="36px" fill="#1e1e1e" text-anchor="start" style="white-space: pre;" direction="ltr" dominant-baseline="text-before-edge">STORYBOARD</text></g><g stroke-linecap="round" transform="translate(2159.790914984689 464.0433276008466) rotate(0 183.50688086310402 140.68860866171315)"><path d="M32 0 M32 0 C132.8 -2.33, 234.83 -2.59, 335.01 0 M32 0 C127.97 -2.14, 225.03 -1.72, 335.01 0 M335.01 0 C357.9 -1.16, 365.09 9.29, 367.01 32 M335.01 0 C354.89 -1.66, 367.87 9.36, 367.01 32 M367.01 32 C365.85 106.18, 365.43 182.21, 367.01 249.38 M367.01 32 C368.38 105.42, 369.23 181.02, 367.01 249.38 M367.01 249.38 C365.21 270.06, 358.07 282.18, 335.01 281.38 M367.01 249.38 C366.88 271.35, 357.97 279.86, 335.01 281.38 M335.01 281.38 C216.36 281.83, 95.41 282.62, 32 281.38 M335.01 281.38 C256.26 282.36, 177.69 281.54, 32 281.38 M32 281.38 C9.84 280.65, -0.77 272.3, 0 249.38 M32 281.38 C12.89 281.34, -0.82 269.07, 0 249.38 M0 249.38 C-1.82 170.05, -1.7 89.68, 0 32 M0 249.38 C-0.65 184.6, -1.2 120.71, 0 32 M0 32 C-0.99 12.51, 10.63 1.73, 32 0 M0 32 C-1.93 12.76, 11.97 -1.58, 32 0" stroke="#1e1e1e" stroke-width="1" fill="none"></path></g><g transform="translate(2236.1674583450604 585.3371095479429) rotate(0 111.0146484375 20.700000000000045)"><text x="0" y="0" font-family="Helvetica, Segoe UI Emoji" font-size="36px" fill="#1e1e1e" text-anchor="start" style="white-space: pre;" direction="ltr" dominant-baseline="text-before-edge">REFERENCE</text></g><g stroke-linecap="round" transform="translate(523.9140286507281 593.2132034359806) rotate(0 183.50688086310402 140.68860866171315)"><path d="M32 0 M32 0 C115.28 -0.39, 198.38 -0.69, 335.01 0 M32 0 C102.81 -1.11, 175.17 -0.28, 335.01 0 M335.01 0 C357.28 -1.24, 368.86 11.13, 367.01 32 M335.01 0 C358.33 0.15, 369.27 12.84, 367.01 32 M367.01 32 C364.56 112.54, 364.77 192.36, 367.01 249.38 M367.01 32 C368 101.32, 367.03 169.76, 367.01 249.38 M367.01 249.38 C365.82 269.02, 357.6 282.24, 335.01 281.38 M367.01 249.38 C366.51 268.98, 358.54 281.32, 335.01 281.38 M335.01 281.38 C227.78 280.05, 121.17 281.52, 32 281.38 M335.01 281.38 C234.04 282.55, 133.31 283.74, 32 281.38 M32 281.38 C11.72 281.02, -0.3 270.93, 0 249.38 M32 281.38 C11.08 282.37, 2 269.75, 0 249.38 M0 249.38 C1.73 202.85, 1.04 153.65, 0 32 M0 249.38 C-0.25 173.4, -0.4 97.58, 0 32 M0 32 C0.91 12.29, 9.17 1.69, 32 0 M0 32 C-1.4 12.31, 9.18 -0.53, 32 0" stroke="#1e1e1e" stroke-width="1" fill="none"></path></g><g transform="translate(617.2856891985994 712.5069853830769) rotate(0 98.033203125 20.700000000000045)"><text x="98.033203125" y="0" font-family="Helvetica, Segoe UI Emoji" font-size="36px" fill="#1e1e1e" text-anchor="middle" style="white-space: pre;" direction="ltr" dominant-baseline="text-before-edge">PERSONAL</text></g><g stroke-linecap="round"><g transform="translate(191.16304445948845 360.5575014256133) rotate(0 1075.5249255588753 -0.23339184969654525)"><path d="M0.76 0.53 C359.2 0.52, 1793.05 -0.88, 2151.35 -1 M-0.3 -0.24 C357.92 -0.06, 1791.46 -0.19, 2150.36 0.02" stroke="#1e1e1e" stroke-width="1" fill="none"></path></g></g><mask></mask><g stroke-linecap="round"><g transform="translate(192.97111307832802 528.6640162113054) rotate(0 0.4253178973217473 -84.04577820823374)"><path d="M-0.35 -1.01 C-0.48 -28.73, 0.08 -139.51, 0.09 -167.23 M1.66 1.07 C1.3 -26.93, -0.33 -141.34, -0.81 -169.16" stroke="#1e1e1e" stroke-width="1" fill="none"></path></g></g><mask></mask><g stroke-linecap="round"><g transform="translate(711.1366299110059 593.8326563758019) rotate(0 0.06916265126005783 -117.2213428687619)"><path d="M0.71 -0.2 C0.65 -39.25, -0.9 -195.43, -1.02 -234.24 M-0.37 -1.35 C-0.01 -40.29, 1.23 -194.85, 1.16 -233.24" stroke="#1e1e1e" stroke-width="1" fill="none"></path></g></g><mask></mask><g stroke-linecap="round"><g transform="translate(1290.6485763633473 595.2290695333509) rotate(0 -0.24973306826109365 -117.42995115345025)"><path d="M0.22 -0.73 C0.26 -39.82, 0.79 -195.29, 0.59 -234.37 M-1.12 1.5 C-1.23 -37.98, -0.47 -197.08, -0.06 -236.36" stroke="#1e1e1e" stroke-width="1" fill="none"></path></g></g><mask></mask><g stroke-linecap="round"><g transform="translate(1845.9476558528572 594.9467660209064) rotate(0 -0.4487672757636574 -117.66587921950406)"><path d="M-0.22 0.14 C-0.44 -38.83, -1.22 -194.82, -1.19 -233.86 M-1.8 -0.83 C-1.67 -40.12, 0.74 -196.26, 0.9 -235.48" stroke="#1e1e1e" stroke-width="1" fill="none"></path></g></g><mask></mask><g stroke-linecap="round"><g transform="translate(2341.9478291163414 359.52008270895794) rotate(0 0.1230086266782564 51.61559625550774)"><path d="M0.36 -0.65 C0.49 16.77, 1.35 86.42, 1.12 103.88 M-0.91 1.62 C-0.86 18.73, 0.38 85.2, 0.76 101.94" stroke="#1e1e1e" stroke-width="1" fill="none"></path></g></g><mask></mask><g stroke-linecap="round" transform="translate(1104.0612780014726 10) rotate(0 183.50688086310402 140.68860866171315)"><path d="M32 0 M32 0 C141.4 1.24, 246.89 0.97, 335.01 0 M32 0 C112.84 0.55, 194.3 0.97, 335.01 0 M335.01 0 C355.49 -1.86, 367.52 10.9, 367.01 32 M335.01 0 C357.74 -0.84, 368.13 10.01, 367.01 32 M367.01 32 C367.9 77.98, 367.89 123.69, 367.01 249.38 M367.01 32 C368.73 106.97, 368.77 181.24, 367.01 249.38 M367.01 249.38 C366.11 269.77, 354.86 280.41, 335.01 281.38 M367.01 249.38 C366.54 272.35, 357.07 279.6, 335.01 281.38 M335.01 281.38 C252.06 282.29, 167.29 280, 32 281.38 M335.01 281.38 C233.89 279.15, 133.02 279.23, 32 281.38 M32 281.38 C12.15 279.96, -0.8 269, 0 249.38 M32 281.38 C9.23 282.43, 1.49 268.91, 0 249.38 M0 249.38 C2.94 181.44, 1.58 111.24, 0 32 M0 249.38 C0.33 201.23, 0.82 153.3, 0 32 M0 32 C0.87 12.01, 10.08 1.98, 32 0 M0 32 C0.67 8.69, 11.41 2.02, 32 0" stroke="#1e1e1e" stroke-width="1" fill="none"></path></g><g transform="translate(1180.4378213618443 131.29378194709625) rotate(0 115.365234375 20.700000000000045)"><text x="0" y="0" font-family="Helvetica, Segoe UI Emoji" font-size="36px" fill="#1e1e1e" text-anchor="start" style="white-space: pre;" direction="ltr" dominant-baseline="text-before-edge">FRONT PAGE</text></g><g stroke-linecap="round"><g transform="translate(1290.8994943269404 290.31066585020017) rotate(0 -0.06995027708831003 35.626852331157124)"><path d="M0.18 0.86 C0.13 12.78, -1.25 59.57, -1.1 70.98 M-1.18 0.27 C-0.81 11.9, 0.69 57.67, 1.04 69.35" stroke="#1e1e1e" stroke-width="1" fill="none"></path></g></g><mask></mask></svg>