<svg version="1.1" xmlns="http://www.w3.org/2000/svg" viewBox="0 0 1832.156145994717 1875.5551560515362" width="3664.312291989434" height="3751.1103121030724">
  <!-- svg-source:excalidraw -->
  
  <defs>
    <style class="style-fonts">
      @font-face {
        font-family: "Virgil";
        src: url("https://excalidraw.com/Virgil.woff2");
      }
      @font-face {
        font-family: "Cascadia";
        src: url("https://excalidraw.com/Cascadia.woff2");
      }
    </style>
    
  </defs>
  <rect x="0" y="0" width="1832.156145994717" height="1875.5551560515362" fill="#ffffff"></rect><g stroke-linecap="round" transform="translate(10.976261547788454 10.000000000000057) rotate(0 905.5899422234643 927.7775780257681)"><path d="M32 0 M32 0 C513.98 3.6, 996.7 2.47, 1779.18 0 M32 0 C553.43 1.97, 1074.59 1.89, 1779.18 0 M1779.18 0 C1800.41 1.19, 1812.36 10.25, 1811.18 32 M1779.18 0 C1800.92 -0.66, 1812.28 11.53, 1811.18 32 M1811.18 32 C1811.84 555.67, 1812.32 1078.27, 1811.18 1823.56 M1811.18 32 C1809.62 633.29, 1809.83 1234.08, 1811.18 1823.56 M1811.18 1823.56 C1812.98 1845.2, 1802.28 1854.77, 1779.18 1855.56 M1811.18 1823.56 C1811.05 1844.11, 1798.78 1857, 1779.18 1855.56 M1779.18 1855.56 C1215.65 1851.63, 653.24 1852.13, 32 1855.56 M1779.18 1855.56 C1131.47 1852.42, 483.21 1852.08, 32 1855.56 M32 1855.56 C8.97 1857.48, 0.73 1844.28, 0 1823.56 M32 1855.56 C9.35 1857.49, 1.74 1842.89, 0 1823.56 M0 1823.56 C-2.5 1165.98, -3.06 507.99, 0 32 M0 1823.56 C-4.44 1200.89, -4.62 579.15, 0 32 M0 32 C-1.01 9.22, 10.43 0.92, 32 0 M0 32 C0.32 8.77, 10.23 1.61, 32 0" stroke="#1e1e1e" stroke-width="1" fill="none"></path></g><g stroke-linecap="round"><g transform="translate(10.788970963656539 128.4122989086796) rotate(0 902.532890709731 0.33390967100856983)"><path d="M-0.79 1.18 C300.09 1.18, 1504.67 -0.23, 1805.85 -0.51 M1 0.76 C301.62 0.95, 1503.9 0.8, 1804.66 0.75" stroke="#1e1e1e" stroke-width="1" fill="none"></path></g></g><mask></mask><g transform="translate(391.4980219346762 63.84087033724717) rotate(0 22.850000381469727 12.5)"><text x="0" y="0" font-family="Virgil, Segoe UI Emoji" font-size="20px" fill="#1e1e1e" text-anchor="start" style="white-space: pre;" direction="ltr" dominant-baseline="text-before-edge">Home</text></g><g transform="translate(500.55959470272865 63.312895327060346) rotate(0 59.34000015258789 12.5)"><text x="0" y="0" font-family="Virgil, Segoe UI Emoji" font-size="20px" fill="#1e1e1e" text-anchor="start" style="white-space: pre;" direction="ltr" dominant-baseline="text-before-edge">Professional</text></g><g transform="translate(688.4512247900202 63.78811402677297) rotate(0 41.320003509521484 12.5)"><text x="0" y="0" font-family="Virgil, Segoe UI Emoji" font-size="20px" fill="#1e1e1e" text-anchor="start" style="white-space: pre;" direction="ltr" dominant-baseline="text-before-edge">Personal</text></g><g transform="translate(1123.1127096218443 64.4766466567674) rotate(0 53.540000915527344 12.5)"><text x="0" y="0" font-family="Virgil, Segoe UI Emoji" font-size="20px" fill="#1e1e1e" text-anchor="start" style="white-space: pre;" direction="ltr" dominant-baseline="text-before-edge">Storyboard</text></g><g transform="translate(838.1480530201516 64.399469315636) rotate(0 105.510009765625 12.5)"><text x="0" y="0" font-family="Virgil, Segoe UI Emoji" font-size="20px" fill="#1e1e1e" text-anchor="start" style="white-space: pre;" direction="ltr" dominant-baseline="text-before-edge">Personal Development</text></g><g transform="translate(1304.6629954022828 64.265275658924) rotate(0 47.510005950927734 12.5)"><text x="0" y="0" font-family="Virgil, Segoe UI Emoji" font-size="20px" fill="#1e1e1e" text-anchor="start" style="white-space: pre;" direction="ltr" dominant-baseline="text-before-edge">Reference</text></g><g stroke-linecap="round"><g transform="translate(373.8711279998388 86.271960459664) rotate(0 604.0168550789258 -0.653143733041361)"><path d="M0.57 -0.46 C202.1 -0.52, 1007.34 -0.92, 1208.62 -0.72 M-0.59 -1.75 C200.86 -1.63, 1006.5 0.36, 1207.84 0.44" stroke="#1e1e1e" stroke-width="1" fill="none"></path></g></g><mask></mask><g transform="translate(390.9731658446908 339.9754987744254) rotate(0 146.1500244140625 12.5)"><text x="0" y="0" font-family="Virgil, Segoe UI Emoji" font-size="20px" fill="#1e1e1e" text-anchor="start" style="white-space: pre;" direction="ltr" dominant-baseline="text-before-edge">Smith, J. D., &amp; Johnson, A. B.</text></g><g transform="translate(390.9731658446908 427.9754987744254) rotate(0 58.440006256103516 12.5)"><text x="0" y="0" font-family="Virgil, Segoe UI Emoji" font-size="20px" fill="#1e1e1e" text-anchor="start" style="white-space: pre;" direction="ltr" dominant-baseline="text-before-edge">Brown, S. C.</text></g><g transform="translate(390.9731658446908 516.9754987744254) rotate(0 155.0800018310547 12.5)"><text x="0" y="0" font-family="Virgil, Segoe UI Emoji" font-size="20px" fill="#1e1e1e" text-anchor="start" style="white-space: pre;" direction="ltr" dominant-baseline="text-before-edge">Johnson, M. K., &amp; Williams, R. L.</text></g><g transform="translate(390.9731658446908 598.9754987744254) rotate(0 203.50001525878906 12.5)"><text x="0" y="0" font-family="Virgil, Segoe UI Emoji" font-size="20px" fill="#1e1e1e" text-anchor="start" style="white-space: pre;" direction="ltr" dominant-baseline="text-before-edge">Davis, P. L., Brown, H. G., &amp; Wilson, K. R.</text></g><g transform="translate(388.9009090934778 251.97538653827638) rotate(0 117.39601135253906 22.5)"><text x="0" y="0" font-family="Virgil, Segoe UI Emoji" font-size="36px" fill="#1e1e1e" text-anchor="start" style="white-space: pre;" direction="ltr" dominant-baseline="text-before-edge">REFERENCES</text></g><g transform="translate(429.370058343693 372.87017591739885) rotate(0 165.8828125 18.4)"><text x="0" y="0" font-family="Helvetica, Segoe UI Emoji" font-size="16px" fill="#1e1e1e" text-anchor="start" style="white-space: pre;" direction="ltr" dominant-baseline="text-before-edge">The Impact of Technology on Modern Society</text><text x="0" y="18.4" font-family="Helvetica, Segoe UI Emoji" font-size="16px" fill="#1e1e1e" text-anchor="start" style="white-space: pre;" direction="ltr" dominant-baseline="text-before-edge">Journal of Technology Studies, 45(3), 123-136.</text></g><g transform="translate(429.370058343693 460.87017591739885) rotate(0 161.4140625 18.4)"><text x="0" y="0" font-family="Helvetica, Segoe UI Emoji" font-size="16px" fill="#1e1e1e" text-anchor="start" style="white-space: pre;" direction="ltr" dominant-baseline="text-before-edge">The Art of Leadership: Strategies for Success</text><text x="0" y="18.4" font-family="Helvetica, Segoe UI Emoji" font-size="16px" fill="#1e1e1e" text-anchor="start" style="white-space: pre;" direction="ltr" dominant-baseline="text-before-edge">Harvard Business Review, 78(5), 56-67.</text></g><g transform="translate(429.370058343693 549.8701759173989) rotate(0 188.09375 18.400000000000006)"><text x="0" y="0" font-family="Helvetica, Segoe UI Emoji" font-size="16px" fill="#1e1e1e" text-anchor="start" style="white-space: pre;" direction="ltr" dominant-baseline="text-before-edge">Exploring the Universe: An Introduction to Astronomy</text><text x="0" y="18.4" font-family="Helvetica, Segoe UI Emoji" font-size="16px" fill="#1e1e1e" text-anchor="start" style="white-space: pre;" direction="ltr" dominant-baseline="text-before-edge">Cambridge University Press.</text></g><g transform="translate(429.370058343693 631.8701759173989) rotate(0 195.671875 18.400000000000006)"><text x="0" y="0" font-family="Helvetica, Segoe UI Emoji" font-size="16px" fill="#1e1e1e" text-anchor="start" style="white-space: pre;" direction="ltr" dominant-baseline="text-before-edge">Environmental Sustainability: Challenges and Solutions</text><text x="0" y="18.4" font-family="Helvetica, Segoe UI Emoji" font-size="16px" fill="#1e1e1e" text-anchor="start" style="white-space: pre;" direction="ltr" dominant-baseline="text-before-edge">Springer.</text></g></svg>