<svg version="1.1" xmlns="http://www.w3.org/2000/svg" viewBox="0 0 1832.0031482584836 1875.5551560515362" width="3664.0062965169673" height="3751.1103121030724">
  <!-- svg-source:excalidraw -->
  
  <defs>
    <style class="style-fonts">
      @font-face {
        font-family: "Virgil";
        src: url("https://excalidraw.com/Virgil.woff2");
      }
      @font-face {
        font-family: "Cascadia";
        src: url("https://excalidraw.com/Cascadia.woff2");
      }
    </style>
    
  </defs>
  <rect x="0" y="0" width="1832.0031482584836" height="1875.5551560515362" fill="#ffffff"></rect><g stroke-linecap="round" transform="translate(10.82326381155508 10) rotate(0 905.5899422234643 927.7775780257681)"><path d="M32 0 M32 0 C415.67 0, 797.89 1.36, 1779.18 0 M32 0 C683.76 6.7, 1335.23 6.65, 1779.18 0 M1779.18 0 C1801.96 1.2, 1809.49 11.95, 1811.18 32 M1779.18 0 C1802.74 -1.25, 1810.45 8.57, 1811.18 32 M1811.18 32 C1807.31 744.12, 1806.18 1457.81, 1811.18 1823.56 M1811.18 32 C1809.07 493.15, 1808.31 954.71, 1811.18 1823.56 M1811.18 1823.56 C1811.65 1845.81, 1800.15 1857.19, 1779.18 1855.56 M1811.18 1823.56 C1810.02 1842.62, 1801.28 1857.51, 1779.18 1855.56 M1779.18 1855.56 C1266.76 1851.75, 753.93 1853.04, 32 1855.56 M1779.18 1855.56 C1167.42 1852.86, 556.09 1853.12, 32 1855.56 M32 1855.56 C8.82 1853.9, 1.57 1845.99, 0 1823.56 M32 1855.56 C12.91 1854.6, 0.93 1844.23, 0 1823.56 M0 1823.56 C3.47 1158.89, 4.11 494.96, 0 32 M0 1823.56 C-1.96 1167.15, -1.77 511.7, 0 32 M0 32 C-1.7 9.29, 9.36 -0.33, 32 0 M0 32 C-1.2 8.84, 10.9 0.87, 32 0" stroke="#1e1e1e" stroke-width="1" fill="none"></path></g><g stroke-linecap="round"><g transform="translate(10.635973227424984 128.41229890867953) rotate(0 903.3753466080025 -0.015783641212607336)"><path d="M0.54 -1.05 C301.27 -0.86, 1504.13 0.97, 1805.24 0.99 M-0.64 1.02 C300.37 0.89, 1506.13 -0.43, 1807.39 -0.61" stroke="#1e1e1e" stroke-width="1" fill="none"></path></g></g><mask></mask><g transform="translate(383.74220738877193 63.84087033724711) rotate(0 22.850000381469727 12.5)"><text x="0" y="0" font-family="Virgil, Segoe UI Emoji" font-size="20px" fill="#1e1e1e" text-anchor="start" style="white-space: pre;" direction="ltr" dominant-baseline="text-before-edge">Home</text></g><g transform="translate(492.8037801568207 63.31289532706029) rotate(0 59.34000015258789 12.5)"><text x="0" y="0" font-family="Virgil, Segoe UI Emoji" font-size="20px" fill="#1e1e1e" text-anchor="start" style="white-space: pre;" direction="ltr" dominant-baseline="text-before-edge">Professional</text></g><g transform="translate(680.6954102441123 63.78811402677292) rotate(0 41.320003509521484 12.5)"><text x="0" y="0" font-family="Virgil, Segoe UI Emoji" font-size="20px" fill="#1e1e1e" text-anchor="start" style="white-space: pre;" direction="ltr" dominant-baseline="text-before-edge">Personal</text></g><g transform="translate(1115.3568950759363 64.47664665676734) rotate(0 53.540000915527344 12.5)"><text x="0" y="0" font-family="Virgil, Segoe UI Emoji" font-size="20px" fill="#1e1e1e" text-anchor="start" style="white-space: pre;" direction="ltr" dominant-baseline="text-before-edge">Storyboard</text></g><g transform="translate(830.3922384742473 64.39946931563594) rotate(0 105.510009765625 12.5)"><text x="0" y="0" font-family="Virgil, Segoe UI Emoji" font-size="20px" fill="#1e1e1e" text-anchor="start" style="white-space: pre;" direction="ltr" dominant-baseline="text-before-edge">Personal Development</text></g><g transform="translate(1296.9071808563785 64.26527565892394) rotate(0 47.510005950927734 12.5)"><text x="0" y="0" font-family="Virgil, Segoe UI Emoji" font-size="20px" fill="#1e1e1e" text-anchor="start" style="white-space: pre;" direction="ltr" dominant-baseline="text-before-edge">Reference</text></g><g stroke-linecap="round"><g transform="translate(366.1153134539327 86.27196045966394) rotate(0 604.0025958566503 -0.6483953993718785)"><path d="M-0.04 0.4 C201.33 0.62, 1005.79 0.18, 1207.33 0.24 M-1.53 -0.44 C200.3 -0.5, 1007.8 -1.63, 1209.53 -1.76" stroke="#1e1e1e" stroke-width="1" fill="none"></path></g></g><mask></mask><g transform="translate(390.8648350932817 326.75962436157005) rotate(0 247.47801208496094 17.5)"><text x="0" y="0" font-family="Virgil, Segoe UI Emoji" font-size="28px" fill="#1e1e1e" text-anchor="start" style="white-space: pre;" direction="ltr" dominant-baseline="text-before-edge">1. Drawn Layout Design (Wireframe):</text></g><g transform="translate(398.82016810845744 1073.6897844887108) rotate(0 262.7519836425781 17.5)"><text x="0" y="0" font-family="Virgil, Segoe UI Emoji" font-size="28px" fill="#1e1e1e" text-anchor="start" style="white-space: pre;" direction="ltr" dominant-baseline="text-before-edge">2. List of Pages and Intent/Purpose:</text></g><g transform="translate(401.0173876115732 1253.4002602959404) rotate(0 151.29800415039062 17.5)"><text x="0" y="0" font-family="Virgil, Segoe UI Emoji" font-size="28px" fill="#1e1e1e" text-anchor="start" style="white-space: pre;" direction="ltr" dominant-baseline="text-before-edge">3. Theme of the Site:</text></g><g transform="translate(405.1159973631311 1433.55450132307) rotate(0 140.8820037841797 17.5)"><text x="0" y="0" font-family="Virgil, Segoe UI Emoji" font-size="28px" fill="#1e1e1e" text-anchor="start" style="white-space: pre;" direction="ltr" dominant-baseline="text-before-edge">4. List of Features:</text></g><g transform="translate(405.1159973631311 1611.041763433136) rotate(0 102.28401184082031 17.5)"><text x="0" y="0" font-family="Virgil, Segoe UI Emoji" font-size="28px" fill="#1e1e1e" text-anchor="start" style="white-space: pre;" direction="ltr" dominant-baseline="text-before-edge">5. Hosting Link:</text></g><g transform="translate(388.74791135724445 251.97538653827633) rotate(0 96.37199401855469 22.5)"><text x="0" y="0" font-family="Virgil, Segoe UI Emoji" font-size="36px" fill="#1e1e1e" text-anchor="start" style="white-space: pre;" direction="ltr" dominant-baseline="text-before-edge">Storyboard</text></g><g transform="translate(395.55697504622367 1130.8121934291778) rotate(0 297.800048828125 50)"><text x="0" y="0" font-family="Virgil, Segoe UI Emoji" font-size="16px" fill="#1e1e1e" text-anchor="start" style="white-space: pre;" direction="ltr" dominant-baseline="text-before-edge">Home Page: Welcome users, display featured travel destinations.</text><text x="0" y="20" font-family="Virgil, Segoe UI Emoji" font-size="16px" fill="#1e1e1e" text-anchor="start" style="white-space: pre;" direction="ltr" dominant-baseline="text-before-edge">Destinations: Provide detailed information on various travel destinations.</text><text x="0" y="40" font-family="Virgil, Segoe UI Emoji" font-size="16px" fill="#1e1e1e" text-anchor="start" style="white-space: pre;" direction="ltr" dominant-baseline="text-before-edge">Tours: Showcase available adventure tours, including itineraries and pricing.</text><text x="0" y="60" font-family="Virgil, Segoe UI Emoji" font-size="16px" fill="#1e1e1e" text-anchor="start" style="white-space: pre;" direction="ltr" dominant-baseline="text-before-edge">Blog: Share travel stories, tips, and recommendations.</text><text x="0" y="80" font-family="Virgil, Segoe UI Emoji" font-size="16px" fill="#1e1e1e" text-anchor="start" style="white-space: pre;" direction="ltr" dominant-baseline="text-before-edge">Contact Us: Offer contact information and a contact form for inquiries.</text></g><g transform="translate(397.75419454933945 1310.5226692364072) rotate(0 374.6319580078125 40)"><text x="0" y="0" font-family="Virgil, Segoe UI Emoji" font-size="16px" fill="#1e1e1e" text-anchor="start" style="white-space: pre;" direction="ltr" dominant-baseline="text-before-edge">Theme: Adventurous and Nature-Inspired</text><text x="0" y="20" font-family="Virgil, Segoe UI Emoji" font-size="16px" fill="#1e1e1e" text-anchor="start" style="white-space: pre;" direction="ltr" dominant-baseline="text-before-edge">Color Scheme: Earthy tones like greens and browns, with accents of vibrant blues and oranges.</text><text x="0" y="40" font-family="Virgil, Segoe UI Emoji" font-size="16px" fill="#1e1e1e" text-anchor="start" style="white-space: pre;" direction="ltr" dominant-baseline="text-before-edge">Graphics: Nature photos, adventure icons (e.g., mountains, backpacks).</text><text x="0" y="60" font-family="Virgil, Segoe UI Emoji" font-size="16px" fill="#1e1e1e" text-anchor="start" style="white-space: pre;" direction="ltr" dominant-baseline="text-before-edge">Target Audience: Adventure enthusiasts, nature lovers, and travel explorers.</text></g><g transform="translate(401.85280430089733 1490.676910263537) rotate(0 351.0800476074219 50)"><text x="0" y="0" font-family="Virgil, Segoe UI Emoji" font-size="16px" fill="#1e1e1e" text-anchor="start" style="white-space: pre;" direction="ltr" dominant-baseline="text-before-edge">Image Gallery: High-quality photos of destinations and adventure activities.</text><text x="0" y="20" font-family="Virgil, Segoe UI Emoji" font-size="16px" fill="#1e1e1e" text-anchor="start" style="white-space: pre;" direction="ltr" dominant-baseline="text-before-edge">Interactive Maps: Maps with pinned locations of featured destinations and tour routes.</text><text x="0" y="40" font-family="Virgil, Segoe UI Emoji" font-size="16px" fill="#1e1e1e" text-anchor="start" style="white-space: pre;" direction="ltr" dominant-baseline="text-before-edge">Video Integration: Embedded videos of adventure experiences.</text><text x="0" y="60" font-family="Virgil, Segoe UI Emoji" font-size="16px" fill="#1e1e1e" text-anchor="start" style="white-space: pre;" direction="ltr" dominant-baseline="text-before-edge">Audio Narration: Narrated blog posts for an immersive storytelling experience.</text><text x="0" y="80" font-family="Virgil, Segoe UI Emoji" font-size="16px" fill="#1e1e1e" text-anchor="start" style="white-space: pre;" direction="ltr" dominant-baseline="text-before-edge">Booking System: Online booking and reservation system for tours.</text></g><g transform="translate(401.85280430089733 1668.164172373603) rotate(0 150.3920135498047 10)"><text x="0" y="0" font-family="Virgil, Segoe UI Emoji" font-size="16px" fill="#1e1e1e" text-anchor="start" style="white-space: pre;" direction="ltr" dominant-baseline="text-before-edge">Hosting Link: [Insert hosting link here]</text></g><g stroke-linecap="round" transform="translate(393.2129759867603 408.8941487851886) rotate(0 458.89962022917643 295.5384081670842)"><path d="M-0.25 -0.73 C335.15 1.49, 668.58 2.63, 917.39 -0.49 M-0.36 0.39 C360.26 0.91, 720.92 1.38, 917.98 -0.07 M918.07 0.68 C916.55 225.33, 916.24 451.87, 917.16 591.63 M917.66 -0.04 C918.79 225.5, 919.05 449.92, 917.47 591.39 M918.12 590.85 C592.35 589.08, 265.43 588.81, -0.15 590.98 M918.11 591.09 C591.73 592.29, 266.61 591.75, -0.28 590.81 M0.08 591.38 C0.45 424.25, 1.62 255.98, 0.19 -0.47 M-0.03 590.79 C0.84 373.24, 0.94 155.42, -0.23 0.36" stroke="#000000" stroke-width="1" fill="none"></path></g><g stroke-linecap="round"><g transform="translate(420.5993909367953 956.9370241367657) rotate(0 419.23203417074365 -178.18133678613145)" fill-rule="evenodd"><path d="M0.5 0.59 L292.06 -256.18 L429.76 -164.81 L659.83 -371.03 L837.55 17.9 L-0.62 -1.34" stroke="none" stroke-width="0" fill="black" fill-rule="evenodd"></path><path d="M-1.07 1.14 C115.62 -102.07, 232.81 -204.79, 290.51 -256.95 M0.57 -0.11 C74.97 -64.49, 150.62 -131.04, 291.12 -257.55 M292.93 -258.16 C323.56 -235.91, 359.84 -213.13, 429.6 -162.25 M291.14 -258.52 C339.46 -224.42, 385.61 -192.43, 429 -163.31 M427.8 -162.85 C520.12 -248.14, 611.77 -330.79, 659.75 -371.83 M428.23 -164.56 C513 -241.27, 596.88 -318.53, 659.45 -372.73 M660.31 -373.62 C703.74 -275.69, 747.29 -179.45, 838.46 17.26 M659.54 -372.5 C707.73 -268.02, 755.58 -164.28, 839.53 16.29 M839.18 16.62 C563.17 10.64, 287.78 4.85, 0.77 0.47 M839.35 16.84 C648.15 10.9, 456.98 7.1, -0.29 0.35 M0 0 C0 0, 0 0, 0 0 M0 0 C0 0, 0 0, 0 0" stroke="#000000" stroke-width="1" fill="none"></path></g></g><mask></mask><g stroke-linecap="round" transform="translate(499.7200151142406 493.45580180685243) rotate(0 68.90582134287797 68.90582134287786)"><path d="M75.28 -0.21 C85.02 -0.43, 97.25 4.46, 105.89 9.72 C114.54 14.97, 121.95 22.83, 127.18 31.32 C132.41 39.81, 136.1 50.78, 137.28 60.68 C138.45 70.58, 137.52 81.3, 134.25 90.71 C130.97 100.12, 124.76 109.83, 117.61 117.16 C110.47 124.49, 100.56 131.42, 91.36 134.68 C82.17 137.94, 72.19 137.99, 62.44 136.73 C52.69 135.46, 41.32 132.05, 32.85 127.07 C24.38 122.09, 16.97 115.19, 11.62 106.85 C6.27 98.51, 2.09 87.09, 0.73 77.02 C-0.63 66.95, 0.41 55.68, 3.45 46.43 C6.49 37.18, 11.93 28.59, 18.99 21.53 C26.04 14.47, 35.95 7.44, 45.79 4.06 C55.63 0.68, 71.97 1.48, 78.04 1.24 C84.1 1, 82.08 1.41, 82.17 2.61 M37.89 8.48 C46.1 3.1, 57.07 1.53, 66.73 1.26 C76.4 0.99, 86.78 2.99, 95.89 6.87 C105 10.76, 114.98 17.44, 121.41 24.57 C127.84 31.7, 132.1 40.1, 134.48 49.66 C136.85 59.21, 137.28 71.8, 135.68 81.91 C134.08 92.01, 130.4 102.13, 124.9 110.3 C119.39 118.46, 111.64 126.34, 102.65 130.9 C93.66 135.47, 80.95 137.68, 70.96 137.69 C60.97 137.71, 51.56 135.03, 42.7 131 C33.85 126.97, 24.7 121.06, 17.82 113.53 C10.93 105.99, 4.19 95.36, 1.39 85.8 C-1.41 76.24, -0.84 65.57, 1.03 56.17 C2.9 46.78, 6.69 37.57, 12.59 29.42 C18.5 21.26, 32.17 10.46, 36.46 7.23 C40.76 4.01, 37.8 9.05, 38.37 10.06" stroke="none" stroke-width="0" fill="black"></path><path d="M47.07 2.76 C55.94 -1.35, 69.15 -1.09, 79.06 0.19 C88.96 1.48, 98.17 4.95, 106.5 10.48 C114.82 16, 123.99 24.54, 129.01 33.36 C134.03 42.17, 135.84 53.33, 136.61 63.36 C137.39 73.4, 137.04 84.19, 133.66 93.55 C130.29 102.91, 123.68 112.86, 116.36 119.51 C109.04 126.16, 99.11 130.36, 89.72 133.44 C80.33 136.53, 69.82 139.29, 60.02 138.04 C50.21 136.8, 39.35 131.5, 30.9 125.97 C22.45 120.45, 14.55 113.24, 9.31 104.88 C4.08 96.51, 0.16 85.74, -0.52 75.8 C-1.21 65.86, 1.67 54.73, 5.19 45.22 C8.72 35.71, 12.51 26.1, 20.61 18.76 C28.71 11.42, 47.01 3.95, 53.8 1.16 C60.6 -1.62, 61.29 0.99, 61.4 2.06 M94.57 5.82 C103.51 8.4, 113.19 16.77, 119.79 23.99 C126.4 31.2, 131.6 39.75, 134.21 49.1 C136.83 58.45, 137.01 70.01, 135.47 80.09 C133.93 90.16, 130.34 101.28, 124.98 109.53 C119.62 117.78, 111.8 124.88, 103.31 129.58 C94.82 134.29, 84.39 137.12, 74.03 137.74 C63.67 138.37, 50.45 137.37, 41.16 133.35 C31.87 129.33, 24.86 121.32, 18.28 113.61 C11.7 105.9, 4.61 96.57, 1.68 87.08 C-1.24 77.59, -0.92 66.31, 0.71 56.67 C2.34 47.03, 5.57 37.5, 11.47 29.25 C17.36 21, 26.91 11.92, 36.06 7.18 C45.22 2.45, 56.52 1.12, 66.4 0.85 C76.29 0.58, 90.82 4.46, 95.38 5.57 C99.94 6.68, 94.34 6.51, 93.79 7.51" stroke="#000000" stroke-width="1" fill="none"></path></g></svg>