<svg version="1.1" xmlns="http://www.w3.org/2000/svg" viewBox="0 0 1831.5149390924798 1875.5551560515362" width="3663.0298781849597" height="3751.1103121030724">
  <!-- svg-source:excalidraw -->
  
  <defs>
    <style class="style-fonts">
      @font-face {
        font-family: "Virgil";
        src: url("https://excalidraw.com/Virgil.woff2");
      }
      @font-face {
        font-family: "Cascadia";
        src: url("https://excalidraw.com/Cascadia.woff2");
      }
    </style>
    
  </defs>
  <rect x="0" y="0" width="1831.5149390924798" height="1875.5551560515362" fill="#ffffff"></rect><g stroke-linecap="round" transform="translate(10.335054645551281 10) rotate(0 905.5899422234643 927.7775780257681)"><path d="M32 0 M32 0 C489.86 2.77, 948.17 1.93, 1779.18 0 M32 0 C401.4 -7.21, 770.37 -6.74, 1779.18 0 M1779.18 0 C1799.07 -0.23, 1811.14 12.56, 1811.18 32 M1779.18 0 C1800.19 1.16, 1809.64 12.63, 1811.18 32 M1811.18 32 C1813.48 694.25, 1812.81 1355.05, 1811.18 1823.56 M1811.18 32 C1816.06 476.19, 1816.61 919.92, 1811.18 1823.56 M1811.18 1823.56 C1811.08 1845.66, 1802.33 1854.21, 1779.18 1855.56 M1811.18 1823.56 C1810.55 1845.46, 1799.6 1855.42, 1779.18 1855.56 M1779.18 1855.56 C1251.98 1854.93, 724.59 1853.78, 32 1855.56 M1779.18 1855.56 C1088.84 1850.53, 398.86 1850.22, 32 1855.56 M32 1855.56 C11.2 1854.51, 1.56 1846.52, 0 1823.56 M32 1855.56 C8.96 1856.95, -0.41 1844.98, 0 1823.56 M0 1823.56 C2.88 1419.32, 3.44 1015.3, 0 32 M0 1823.56 C6.42 1415.59, 6.14 1007.87, 0 32 M0 32 C-0.19 9.35, 10.49 -0.51, 32 0 M0 32 C1.82 12.31, 10.03 -0.71, 32 0" stroke="#1e1e1e" stroke-width="1" fill="none"></path></g><g stroke-linecap="round"><g transform="translate(10.14776406141931 128.41229890867953) rotate(0 903.5539212162084 0.9300020473899906)"><path d="M0.86 1.09 C301.89 1.3, 1506.52 0.11, 1807.26 0.11 M-0.15 0.62 C300.71 1.15, 1505.5 1.92, 1806.79 1.71" stroke="#1e1e1e" stroke-width="1" fill="none"></path></g></g><mask></mask><g transform="translate(375.4469670126595 63.84087033724711) rotate(0 22.850000381469727 12.5)"><text x="0" y="0" font-family="Virgil, Segoe UI Emoji" font-size="20px" fill="#1e1e1e" text-anchor="start" style="white-space: pre;" direction="ltr" dominant-baseline="text-before-edge">Home</text></g><g transform="translate(376.97554972389264 286.8502463968102) rotate(0 123.08000946044922 12.5)"><text x="0" y="0" font-family="Virgil, Segoe UI Emoji" font-size="20px" fill="#1e1e1e" text-anchor="start" style="white-space: pre;" direction="ltr" dominant-baseline="text-before-edge">Hello, I'm Raheem Gordon</text></g><g transform="translate(484.5085397807094 63.31289532706029) rotate(0 59.34000015258789 12.5)"><text x="0" y="0" font-family="Virgil, Segoe UI Emoji" font-size="20px" fill="#1e1e1e" text-anchor="start" style="white-space: pre;" direction="ltr" dominant-baseline="text-before-edge">Professional</text></g><g transform="translate(672.4001698680013 63.78811402677292) rotate(0 41.320003509521484 12.5)"><text x="0" y="0" font-family="Virgil, Segoe UI Emoji" font-size="20px" fill="#1e1e1e" text-anchor="start" style="white-space: pre;" direction="ltr" dominant-baseline="text-before-edge">Personal</text></g><g transform="translate(1107.0616546998258 64.47664665676734) rotate(0 53.540000915527344 12.5)"><text x="0" y="0" font-family="Virgil, Segoe UI Emoji" font-size="20px" fill="#1e1e1e" text-anchor="start" style="white-space: pre;" direction="ltr" dominant-baseline="text-before-edge">Storyboard</text></g><g transform="translate(822.0969980981349 64.39946931563594) rotate(0 105.510009765625 12.5)"><text x="0" y="0" font-family="Virgil, Segoe UI Emoji" font-size="20px" fill="#1e1e1e" text-anchor="start" style="white-space: pre;" direction="ltr" dominant-baseline="text-before-edge">Personal Development</text></g><g transform="translate(1288.6119404802664 64.26527565892394) rotate(0 47.510005950927734 12.5)"><text x="0" y="0" font-family="Virgil, Segoe UI Emoji" font-size="20px" fill="#1e1e1e" text-anchor="start" style="white-space: pre;" direction="ltr" dominant-baseline="text-before-edge">Reference</text></g><g stroke-linecap="round"><g transform="translate(357.82007307782106 86.27196045966394) rotate(0 603.460778681081 0.8159182503874831)"><path d="M-0.97 0.68 C200.48 0.71, 1006.32 0.36, 1207.89 0.07 M0.72 -0.01 C202.04 0.24, 1005.55 1.69, 1206.73 1.64" stroke="#1e1e1e" stroke-width="1" fill="none"></path></g></g><mask></mask><g transform="translate(657.3073212388576 395.80724340918914) rotate(0 79.99600219726562 17.5)"><text x="0" y="0" font-family="Virgil, Segoe UI Emoji" font-size="28px" fill="#1e1e1e" text-anchor="start" style="white-space: pre;" direction="ltr" dominant-baseline="text-before-edge">HERETH MY</text></g><g transform="translate(657.3073212388579 437.6896722525619) rotate(0 140.7779998779297 22.5)"><text x="0" y="0" font-family="Virgil, Segoe UI Emoji" font-size="36px" fill="#1e1e1e" text-anchor="start" style="white-space: pre;" direction="ltr" dominant-baseline="text-before-edge">MY PORTFOLIO</text></g><g transform="translate(384.47856464573715 624.2407648577497) rotate(0 551.776123046875 30)"><text x="0" y="0" font-family="Virgil, Segoe UI Emoji" font-size="16px" fill="#1e1e1e" text-anchor="start" style="white-space: pre;" direction="ltr" dominant-baseline="text-before-edge">I'm, a dedicated Computer Science student at the University of Technology - Jamaica, on a mission to bridge creativity with cutting-edge </text><text x="0" y="20" font-family="Virgil, Segoe UI Emoji" font-size="16px" fill="#1e1e1e" text-anchor="start" style="white-space: pre;" direction="ltr" dominant-baseline="text-before-edge">technology. With a strong foundation in Java, JavaScript, Python, and C, I bring a GPA of 3.85 and a passion for innovative programming</text><text x="0" y="40" font-family="Virgil, Segoe UI Emoji" font-size="16px" fill="#1e1e1e" text-anchor="start" style="white-space: pre;" direction="ltr" dominant-baseline="text-before-edge"> to the table. Also I'm dedicated to making some money...</text></g><g stroke-linecap="round" transform="translate(385.5742135182335 722.370885582068) rotate(0 72.20229593034654 23.793938431591528)"><path d="M13.19 1.14 L136.57 0.44 L141.39 2.81 L145.31 10.35 L142.55 42.13 L139.06 45.64 L130.94 49 L6.09 46.63 L0.31 41.86 L0.32 37.67 L1.88 8.17 L2.83 5.46 L3.33 1.98 L10.88 0.69" stroke="none" stroke-width="0" fill="#1e1e1e"></path><path d="M11.9 0 M11.9 0 C57.48 -0.23, 104.69 0.09, 132.51 0 M11.9 0 C52.93 -0.6, 93.49 0.32, 132.51 0 M132.51 0 C139.75 -1.75, 146.14 3.44, 144.4 11.9 M132.51 0 C139.91 1.05, 144.44 5.99, 144.4 11.9 M144.4 11.9 C146.38 18.23, 144.56 20.23, 144.4 35.69 M144.4 11.9 C144.6 16.92, 143.63 23.67, 144.4 35.69 M144.4 35.69 C142.73 44.19, 141.4 45.71, 132.51 47.59 M144.4 35.69 C142.27 45.21, 140.48 49.09, 132.51 47.59 M132.51 47.59 C88.29 48.29, 45.62 46.5, 11.9 47.59 M132.51 47.59 C92.16 46.61, 51.41 46.67, 11.9 47.59 M11.9 47.59 C4.27 47.24, -1.33 45.35, 0 35.69 M11.9 47.59 C3.26 46.74, -0.34 42.17, 0 35.69 M0 35.69 C1.16 26.49, -1.63 15.26, 0 11.9 M0 35.69 C0.31 26.81, 0.83 18.17, 0 11.9 M0 11.9 C-0.74 2.54, 5.39 -1.54, 11.9 0 M0 11.9 C1.26 5.17, 2.69 0.14, 11.9 0" stroke="#1e1e1e" stroke-width="1" fill="none"></path></g><g transform="translate(400.0876708992964 734.9698132409853) rotate(0 58.39577171268854 12.63540178781065)"><text x="0" y="0" font-family="Virgil, Segoe UI Emoji" font-size="20.216642860497043px" fill="#ffffff" text-anchor="start" style="white-space: pre;" direction="ltr" dominant-baseline="text-before-edge">Contact Me</text></g><g stroke-linecap="round" transform="translate(366.079599507622 362.34970874830105) rotate(0 99.2458105254571 99.2458105254571)"><path d="M66.84 5.84 C77.6 0.51, 91.57 0.01, 104.24 0.6 C116.91 1.19, 131.46 3.87, 142.86 9.35 C154.25 14.84, 164.13 23.89, 172.6 33.51 C181.06 43.13, 189.36 55.32, 193.64 67.07 C197.92 78.83, 199.14 91.54, 198.29 104.05 C197.44 116.55, 194.04 130.39, 188.55 142.09 C183.06 153.8, 174.87 165.82, 165.37 174.29 C155.87 182.75, 143.39 188.78, 131.54 192.87 C119.7 196.96, 106.95 199.44, 94.3 198.84 C81.66 198.24, 67.27 195.02, 55.67 189.26 C44.06 183.51, 33.01 173.87, 24.66 164.31 C16.32 154.74, 9.63 143.59, 5.6 131.85 C1.57 120.11, -0.2 106.42, 0.48 93.85 C1.15 81.28, 4.25 67.76, 9.64 56.43 C15.02 45.09, 22.45 34.78, 32.78 25.85 C43.12 16.92, 64.13 6.59, 71.64 2.87 C79.16 -0.86, 77.42 1.8, 77.86 3.49 M61.62 8.62 C71.99 2.62, 87.02 -0.77, 99.61 -0.81 C112.21 -0.84, 125.61 3.25, 137.19 8.42 C148.77 13.59, 160.1 21.49, 169.09 30.19 C178.09 38.88, 186.11 48.94, 191.17 60.6 C196.23 72.27, 199.32 87.24, 199.45 100.19 C199.59 113.15, 196.84 126.56, 191.96 138.32 C187.08 150.08, 179.31 162.1, 170.19 170.77 C161.07 179.43, 149.17 185.74, 137.25 190.29 C125.34 194.84, 111.56 197.97, 98.7 198.07 C85.83 198.16, 71.46 195.72, 60.06 190.87 C48.67 186.02, 39.12 177.84, 30.33 168.95 C21.54 160.05, 12.5 149.18, 7.34 137.52 C2.17 125.86, -0.74 111.43, -0.65 98.98 C-0.56 86.53, 2.96 74.58, 7.87 62.83 C12.78 51.09, 20.14 37.79, 28.8 28.51 C37.47 19.23, 54.3 10.56, 59.89 7.15 C65.48 3.74, 61.52 6.43, 62.34 8.04" stroke="none" stroke-width="0" fill="white"></path><path d="M70.53 3.56 C81.68 -1.35, 98.34 -1.26, 110.96 0.33 C123.57 1.93, 135.29 6.94, 146.21 13.13 C157.14 19.33, 168.35 27.87, 176.52 37.48 C184.68 47.09, 191.53 58.73, 195.21 70.79 C198.89 82.85, 200.22 97.23, 198.6 109.82 C196.97 122.41, 191.5 135.16, 185.44 146.34 C179.37 157.52, 171.8 168.87, 162.21 176.91 C152.62 184.96, 140.17 191, 127.92 194.62 C115.66 198.23, 101.32 200.14, 88.67 198.6 C76.01 197.07, 63.26 191.53, 51.98 185.4 C40.71 179.27, 28.88 171.46, 21.04 161.84 C13.2 152.23, 8.26 140.02, 4.94 127.71 C1.62 115.41, -0.07 100.79, 1.13 88 C2.34 75.22, 6.23 61.96, 12.15 51.02 C18.07 40.07, 24.31 30.56, 36.63 22.34 C48.96 14.11, 75.16 4.99, 86.09 1.67 C97.02 -1.65, 101.97 0.79, 102.19 2.41 M69.66 5.74 C80.56 0.92, 96.48 -0.84, 109.26 0.01 C122.03 0.85, 135.38 4.57, 146.29 10.82 C157.21 17.06, 166.67 27.48, 174.75 37.46 C182.83 47.43, 191.12 58.59, 194.79 70.65 C198.47 82.72, 198.09 97.51, 196.8 109.85 C195.52 122.18, 192.84 133.72, 187.1 144.65 C181.35 155.59, 172.09 167.07, 162.34 175.46 C152.59 183.85, 140.64 191.45, 128.58 194.97 C116.53 198.48, 102.7 198.15, 90.02 196.56 C77.34 194.97, 63.52 191.13, 52.51 185.43 C41.5 179.73, 32.25 171.91, 23.98 162.36 C15.71 152.81, 6.91 140.08, 2.89 128.13 C-1.13 116.18, -1.58 103.03, -0.14 90.65 C1.31 78.27, 5.38 65.37, 11.55 53.84 C17.72 42.31, 27.2 29.79, 36.87 21.47 C46.54 13.14, 63.86 6.33, 69.58 3.91 C75.3 1.49, 70.76 5.52, 71.18 6.93" stroke="#000000" stroke-width="1" fill="none"></path></g><g stroke-linecap="round" transform="translate(432.347412667973 399.2688103091365) rotate(0 35.198276769892686 35.198276769892686)"><path d="M39.38 1.31 C46.11 1.64, 54.78 4.49, 59.87 9.09 C64.95 13.68, 68.64 21.94, 69.9 28.88 C71.17 35.82, 70.37 44.4, 67.45 50.72 C64.54 57.04, 58.77 63.67, 52.42 66.8 C46.07 69.93, 36.37 70.54, 29.36 69.5 C22.35 68.45, 15.07 65.39, 10.35 60.53 C5.62 55.68, 2.26 47.17, 0.99 40.36 C-0.27 33.55, -0.18 25.83, 2.73 19.66 C5.64 13.49, 11.11 6.29, 18.45 3.35 C25.79 0.42, 41.01 1.64, 46.78 2.06 C52.54 2.48, 53.34 5.27, 53.05 5.89 M42.44 1.67 C49.21 2.66, 57.31 6.35, 61.69 11.24 C66.08 16.13, 68.13 24.1, 68.74 30.99 C69.36 37.87, 68.26 46.61, 65.36 52.56 C62.46 58.51, 57.54 63.62, 51.34 66.68 C45.15 69.74, 35.06 72.27, 28.19 70.92 C21.33 69.57, 14.63 63.94, 10.14 58.56 C5.65 53.19, 2.44 45.39, 1.26 38.66 C0.08 31.92, -0.13 23.98, 3.06 18.15 C6.26 12.33, 13.84 6.69, 20.43 3.71 C27.01 0.73, 38.88 0.78, 42.56 0.27 C46.24 -0.24, 42.52 0.11, 42.5 0.67" stroke="none" stroke-width="0" fill="black"></path><path d="M39.35 -0.11 C45.95 0.24, 52.65 5, 57.66 9.65 C62.67 14.3, 67.65 21.35, 69.41 27.81 C71.17 34.28, 70.82 42.2, 68.23 48.44 C65.64 54.68, 60.06 61.71, 53.88 65.24 C47.7 68.77, 37.98 70.17, 31.14 69.62 C24.29 69.07, 17.71 66.36, 12.81 61.93 C7.91 57.51, 3.37 49.71, 1.75 43.05 C0.12 36.39, 0.42 28.49, 3.07 21.99 C5.72 15.5, 11.04 7.49, 17.67 4.08 C24.3 0.66, 37.57 1.51, 42.86 1.5 C48.16 1.49, 49.35 3.62, 49.43 4.03 M34.61 -1.07 C41.49 -1.72, 50.45 1.76, 56.14 5.64 C61.84 9.51, 66.46 15.8, 68.8 22.18 C71.14 28.56, 71.94 37.38, 70.18 43.94 C68.42 50.5, 63.98 56.91, 58.25 61.56 C52.52 66.21, 42.84 71.42, 35.79 71.82 C28.74 72.22, 21.48 68.19, 15.93 63.96 C10.38 59.73, 5.1 52.63, 2.47 46.44 C-0.15 40.25, -1.76 33.24, 0.17 26.79 C2.1 20.35, 8.64 12.1, 14.06 7.79 C19.48 3.49, 29.32 2.36, 32.67 0.96 C36.03 -0.43, 33.97 -0.94, 34.21 -0.59" stroke="#000000" stroke-width="1" fill="none"></path></g><g stroke-linecap="round"><g transform="translate(397.59515137038113 514.7767274668482) rotate(0 68.16778100279359 0.33748485465867617)" fill-rule="evenodd"><path d="M-1.74 -1.63 L22.22 -16.18 L31.51 -22.7 L47.92 -32.26 L68.1 -36.77 L92.5 -32.71 L113.97 -23.13 L129.32 -14.64 L135.92 -9.34 L138.76 -4.23 L134.35 6.11 L130.68 10.98 L116.84 23.33 L99.89 33.26 L85.82 35.66 L66.97 37.56 L53.03 32.62 L38.56 28.63 L18.74 17.27 L0.58 -1.95" stroke="none" stroke-width="0" fill="black" fill-rule="evenodd"></path><path d="M0.22 -1.11 C5.28 -5.04, 18.23 -16.75, 29.66 -22.69 C41.1 -28.62, 54.88 -36.7, 68.82 -36.72 C82.75 -36.74, 101.85 -28.67, 113.29 -22.82 C124.73 -16.97, 137.06 -9.66, 137.45 -1.63 C137.84 6.39, 124.39 19.34, 115.61 25.32 C106.83 31.31, 95.39 32.61, 84.77 34.29 C74.15 35.96, 61.77 37.32, 51.89 35.37 C42.01 33.42, 34.13 28.44, 25.5 22.59 C16.87 16.73, 4.22 3.92, 0.11 0.25 M-1.12 0.93 C3.79 -3.4, 16.96 -18.09, 28.46 -24.23 C39.96 -30.36, 54.22 -36.28, 67.89 -35.87 C81.56 -35.47, 99.06 -27.63, 110.45 -21.79 C121.84 -15.94, 135.19 -8.56, 136.21 -0.8 C137.24 6.95, 125.09 18.57, 116.6 24.72 C108.11 30.87, 95.69 34.27, 85.28 36.08 C74.87 37.88, 64.34 37.94, 54.13 35.55 C43.92 33.17, 32.87 27.7, 24 21.76 C15.14 15.82, 4.68 3.25, 0.94 -0.07" stroke="#000000" stroke-width="1" fill="none"></path></g></g><mask></mask></svg>